<?xml version="1.0" encoding="UTF-8"?>
<svg id="Capa_1" data-name="Capa 1" xmlns="http://www.w3.org/2000/svg" width="40" height="40" xmlns:xlink="http://www.w3.org/1999/xlink" viewBox="0 0 40 40">
  <defs>
    <style>
      .cls-1 {
        fill: #f5f5f5;
      }

      .cls-1, .cls-2, .cls-3, .cls-4 {
        stroke-width: 0px;
      }

      .cls-5 {
        clip-path: url(#clippath);
      }

      .cls-2 {
        fill: none;
      }

      .cls-3 {
        fill: #5939aa;
      }

      .cls-4 {
        fill: #fff;
        filter: url(#drop-shadow-1);
      }
    </style>
    <filter id="drop-shadow-1" filterUnits="userSpaceOnUse">
      <feOffset dx="2" dy="2"/>
      <feGaussianBlur result="blur" stdDeviation="2"/>
      <feFlood flood-color="#000" flood-opacity=".16"/>
      <feComposite in2="blur" operator="in"/>
      <feComposite in="SourceGraphic"/>
    </filter>
    <clipPath id="clippath">
      <rect class="cls-2" x="14.08" y="13.95" width="8.43" height="8.64"/>
    </clipPath>
  </defs>
  <g id="Grupo_1" data-name="Grupo 1">
    <circle id="Elipse_99" data-name="Elipse 99" class="cls-4" cx="18.06" cy="17.94" r="13.94"/>
    <path id="Elipse_99_-_Contorno" data-name="Elipse 99 - Contorno" class="cls-1" d="M18.06,5c-7.15,0-12.94,5.79-12.94,12.94,0,3.43,1.36,6.72,3.79,9.15,5.1,5.01,13.29,4.93,18.3-.17,4.94-5.03,4.94-13.1,0-18.13-2.42-2.43-5.72-3.8-9.15-3.79M18.06,4c7.7,0,13.94,6.24,13.94,13.94s-6.24,13.94-13.94,13.94-13.94-6.24-13.94-13.94,6.24-13.94,13.94-13.94Z"/>
    <g id="Grupo_163001" data-name="Grupo 163001">
      <g class="cls-5">
        <g id="Grupo_163001-2" data-name="Grupo 163001-2">
          <path id="Trazado_31396" data-name="Trazado 31396" class="cls-3" d="M22.51,13.95l-3.48,8.64h-1.46l-3.48-8.64h1.29c.12,0,.24.03.34.1.09.07.16.16.2.26l2.03,5.27c.07.17.13.36.2.56.07.21.13.42.18.64.05-.22.1-.44.16-.64.05-.19.11-.38.18-.56l2.02-5.27c.04-.1.1-.19.19-.25.1-.08.22-.12.34-.11h1.3Z"/>
        </g>
      </g>
    </g>
  </g>
</svg>