<?xml version="1.0" encoding="UTF-8"?><svg id="Capa_1" xmlns="http://www.w3.org/2000/svg" viewBox="0 0 189.51 170.78"><defs><style>.cls-1,.cls-2,.cls-3{fill:none;stroke:#d1cfd1;stroke-linejoin:round;}.cls-2{stroke-dasharray:0 0 0 3 3 3;stroke-width:.75px;}.cls-4{fill:#4d4d4f;}.cls-4,.cls-5{stroke-width:0px;}.cls-5{fill:#2e2e95;}.cls-3{stroke-dasharray:0 0 5.12 5.12;stroke-width:.96px;}</style></defs><polyline class="cls-1" points="95.61 81.24 96.71 78.57 97.82 75.89 98.93 73.22 100.03 70.55 101.14 67.88 102.25 65.21 103.35 62.54 104.46 59.86 105.57 57.19 106.67 54.52 107.78 51.85 108.89 49.18 109.99 46.51 111.1 43.84 112.21 41.16 113.31 38.49 114.42 35.82 115.53 33.15"/><polyline class="cls-1" points="99.13 84.76 101.8 83.65 104.47 82.55 107.14 81.44 109.81 80.33 112.49 79.23 115.16 78.12 117.83 77.01 120.5 75.91 123.17 74.8 125.84 73.69 128.52 72.59 131.19 71.48 133.86 70.37 136.53 69.27 139.2 68.16 141.87 67.05 144.55 65.95 147.22 64.84"/><polyline class="cls-1" points="99.13 89.74 101.8 90.85 104.47 91.95 107.14 93.06 109.81 94.16 112.49 95.27 115.16 96.38 117.83 97.48 120.5 98.59 123.17 99.7 125.84 100.8 128.52 101.91 131.19 103.02 133.86 104.12 136.53 105.23 139.2 106.34 141.87 107.44 144.55 108.55 147.22 109.66"/><polyline class="cls-1" points="95.61 93.26 96.71 95.93 97.82 98.6 98.93 101.27 100.03 103.95 101.14 106.62 102.25 109.29 103.35 111.96 104.46 114.63 105.57 117.3 106.67 119.98 107.78 122.65 108.89 125.32 109.99 127.99 111.1 130.66 112.21 133.33 113.31 136.01 114.42 138.68 115.53 141.35"/><polyline class="cls-1" points="90.63 93.26 89.52 95.93 88.41 98.6 87.31 101.27 86.2 103.95 85.09 106.62 83.99 109.29 82.88 111.96 81.77 114.63 80.67 117.3 79.56 119.98 78.45 122.65 77.35 125.32 76.24 127.99 75.13 130.66 74.03 133.33 72.92 136.01 71.81 138.68 70.71 141.35"/><polyline class="cls-1" points="87.11 89.74 84.43 90.85 81.76 91.95 79.09 93.06 76.42 94.16 73.75 95.27 71.08 96.38 68.4 97.48 65.73 98.59 63.06 99.7 60.39 100.8 57.72 101.91 55.05 103.02 52.38 104.12 49.7 105.23 47.03 106.34 44.36 107.44 41.69 108.55 39.02 109.66"/><polyline class="cls-1" points="87.11 84.76 84.43 83.65 81.76 82.55 79.09 81.44 76.42 80.33 73.75 79.23 71.08 78.12 68.4 77.01 65.73 75.91 63.06 74.8 60.39 73.69 57.72 72.59 55.05 71.48 52.38 70.37 49.7 69.27 47.03 68.16 44.36 67.05 41.69 65.95 39.02 64.84"/><polyline class="cls-1" points="90.63 81.24 89.52 78.57 88.41 75.89 87.31 73.22 86.2 70.55 85.09 67.88 83.99 65.21 82.88 62.54 81.77 59.86 80.67 57.19 79.56 54.52 78.45 51.85 77.35 49.18 76.24 46.51 75.13 43.84 74.03 41.16 72.92 38.49 71.81 35.82 70.71 33.15"/><polyline class="cls-3" points="93.12 80.74 95.94 81.39 98.2 83.19 99.46 85.8 99.46 88.7 98.2 91.31 95.94 93.11 93.12 93.75 90.29 93.11 88.03 91.31 86.77 88.7 86.77 85.8 88.03 83.19 90.29 81.39 93.12 80.74"/><polyline class="cls-3" points="93.12 67.73 96.03 67.95 98.87 68.6 101.59 69.66 104.11 71.12 106.39 72.94 108.38 75.08 110.02 77.49 111.29 80.12 112.15 82.91 112.58 85.79 112.58 88.71 112.15 91.59 111.29 94.38 110.02 97.01 108.38 99.42 106.39 101.56 104.11 103.38 101.59 104.83 98.87 105.9 96.03 106.55 93.12 106.77 90.21 106.55 87.36 105.9 84.65 104.83 82.12 103.38 79.84 101.56 77.86 99.42 76.21 97.01 74.95 94.38 74.09 91.59 73.65 88.71 73.65 85.79 74.09 82.91 74.95 80.12 76.21 77.49 77.86 75.08 79.84 72.94 82.12 71.12 84.65 69.66 87.36 68.6 90.21 67.95 93.12 67.73"/><polyline class="cls-2" points="93.12 54.72 95.99 54.84 98.85 55.22 101.65 55.86 104.39 56.73 107.05 57.85 109.59 59.2 112.01 60.76 114.27 62.53 116.37 64.5 118.29 66.65 120.02 68.95 121.53 71.4 122.82 73.97 123.87 76.65 124.69 79.41 125.26 82.23 125.58 85.09 125.64 87.97 125.45 90.84 125.01 93.68 124.31 96.48 123.38 99.2 122.2 101.82 120.8 104.34 119.18 106.72 117.36 108.95 115.34 111 113.16 112.87 110.82 114.55 108.33 116 105.73 117.23 103.03 118.23 100.26 118.99 97.42 119.49 94.56 119.75 91.68 119.75 88.81 119.49 85.98 118.99 83.2 118.23 80.5 117.23 77.9 116 75.42 114.55 73.08 112.87 70.89 111 68.88 108.95 67.05 106.72 65.44 104.34 64.03 101.82 62.86 99.2 61.92 96.48 61.23 93.68 60.78 90.84 60.59 87.97 60.66 85.09 60.97 82.23 61.54 79.41 62.36 76.65 63.42 73.97 64.71 71.4 66.22 68.95 67.94 66.65 69.86 64.5 71.96 62.53 74.23 60.76 76.64 59.2 79.19 57.85 81.84 56.73 84.58 55.86 87.39 55.22 90.24 54.84 93.12 54.72"/><polyline class="cls-2" points="93.12 41.7 95.98 41.79 98.83 42.06 101.65 42.51 104.44 43.13 107.19 43.93 109.88 44.9 112.51 46.04 115.06 47.34 117.52 48.79 119.89 50.4 122.15 52.16 124.29 54.05 126.32 56.07 128.21 58.22 129.96 60.48 131.57 62.84 133.03 65.31 134.33 67.86 135.46 70.48 136.43 73.17 137.23 75.92 137.86 78.71 138.3 81.54 138.57 84.39 138.66 87.25 138.57 90.11 138.3 92.96 137.86 95.78 137.23 98.58 136.43 101.32 135.46 104.01 134.33 106.64 133.03 109.19 131.57 111.65 129.96 114.02 128.21 116.28 126.32 118.43 124.29 120.45 122.15 122.34 119.89 124.09 117.52 125.7 115.06 127.16 112.51 128.46 109.88 129.59 107.19 130.56 104.44 131.36 101.65 131.99 98.83 132.43 95.98 132.7 93.12 132.79 90.26 132.7 87.41 132.43 84.58 131.99 81.79 131.36 79.04 130.56 76.35 129.59 73.73 128.46 71.18 127.16 68.71 125.7 66.35 124.09 64.09 122.34 61.94 120.45 59.92 118.43 58.02 116.28 56.27 114.02 54.66 111.65 53.21 109.19 51.91 106.64 50.77 104.01 49.8 101.32 49 98.58 48.38 95.78 47.93 92.96 47.66 90.11 47.57 87.25 47.66 84.39 47.93 81.54 48.38 78.71 49 75.92 49.8 73.17 50.77 70.48 51.91 67.86 53.21 65.31 54.66 62.84 56.27 60.48 58.02 58.22 59.92 56.07 61.94 54.05 64.09 52.16 66.35 50.4 68.71 48.79 71.18 47.34 73.73 46.04 76.35 44.9 79.04 43.93 81.79 43.13 84.58 42.51 87.41 42.06 90.26 41.79 93.12 41.7"/><polyline class="cls-2" points="93.12 28.69 95.99 28.76 98.86 28.97 101.71 29.32 104.54 29.82 107.35 30.45 110.12 31.21 112.84 32.11 115.53 33.15 118.15 34.31 120.72 35.61 123.22 37.02 125.65 38.56 128 40.21 130.27 41.98 132.44 43.86 134.52 45.84 136.51 47.92 138.38 50.1 140.15 52.37 141.81 54.72 143.34 57.14 144.76 59.64 146.05 62.21 147.22 64.84 148.25 67.52 149.15 70.25 149.92 73.02 150.55 75.82 151.04 78.66 151.39 81.51 151.6 84.38 151.67 87.25 151.6 90.12 151.39 92.99 151.04 95.84 150.55 98.67 149.92 101.48 149.15 104.25 148.25 106.98 147.22 109.66 146.05 112.29 144.76 114.85 143.34 117.35 141.81 119.78 140.15 122.13 138.38 124.4 136.51 126.57 134.52 128.65 132.44 130.64 130.27 132.51 128 134.28 125.65 135.94 123.22 137.47 120.72 138.89 118.15 140.18 115.53 141.35 112.84 142.38 110.12 143.28 107.35 144.05 104.54 144.68 101.71 145.17 98.86 145.52 95.99 145.74 93.12 145.81 90.24 145.74 87.38 145.52 84.53 145.17 81.69 144.68 78.89 144.05 76.12 143.28 73.39 142.38 70.71 141.35 68.08 140.18 65.51 138.89 63.01 137.47 60.58 135.94 58.23 134.28 55.97 132.51 53.79 130.64 51.71 128.65 49.73 126.57 47.85 124.4 46.08 122.13 44.43 119.78 42.89 117.35 41.47 114.85 40.18 112.29 39.02 109.66 37.98 106.98 37.08 104.25 36.31 101.48 35.69 98.67 35.19 95.84 34.84 92.99 34.63 90.12 34.56 87.25 34.63 84.38 34.84 81.51 35.19 78.66 35.69 75.82 36.31 73.02 37.08 70.25 37.98 67.52 39.02 64.84 40.18 62.21 41.47 59.64 42.89 57.14 44.43 54.72 46.08 52.37 47.85 50.1 49.73 47.92 51.71 45.84 53.79 43.86 55.97 41.98 58.23 40.21 60.58 38.56 63.01 37.02 65.51 35.61 68.08 34.31 70.71 33.15 73.39 32.11 76.12 31.21 78.89 30.45 81.69 29.82 84.53 29.32 87.38 28.97 90.24 28.76 93.12 28.69"/><polygon class="cls-5" points="94.3 57.11 97.33 57.38 100.32 57.96 103.24 58.83 106.05 60 108.73 61.44 111.26 63.15 113.59 65.1 111.59 67.27 109.58 69.44 107.57 71.61 105.56 73.78 103.56 75.96 101.55 78.13 99.54 80.3 97.53 82.47 93.37 80.75 93.49 77.79 93.6 74.84 93.72 71.88 93.84 68.93 93.95 65.97 94.07 63.02 94.19 60.06 94.3 57.11"/><polygon class="cls-5" points="114.65 67.35 116.54 69.62 118.2 72.07 119.6 74.68 120.73 77.41 121.59 80.24 122.15 83.15 122.41 86.1 119.16 86.23 115.9 86.35 112.64 86.48 109.39 86.61 106.13 86.74 102.87 86.87 99.62 86.99 97.9 82.83 100.29 80.62 102.68 78.41 105.07 76.2 107.47 73.98 109.86 71.77 112.25 69.56 114.65 67.35"/><polygon class="cls-5" points="125.81 88.53 125.57 91.41 125.07 94.26 124.33 97.05 123.34 99.77 122.12 102.39 120.67 104.89 119.01 107.25 117.14 109.46 115 107.48 112.86 105.5 110.73 103.53 108.59 101.55 106.45 99.57 104.31 97.6 102.17 95.62 100.03 93.64 97.9 91.67 99.62 87.5 102.53 87.62 105.44 87.73 108.35 87.85 111.26 87.96 114.17 88.08 117.08 88.19 119.99 88.3 122.9 88.42 125.81 88.53"/><polygon class="cls-5" points="119.78 116.09 117.43 118.1 114.94 119.91 112.31 121.52 109.56 122.92 106.71 124.1 103.78 125.05 100.78 125.77 97.73 126.26 94.66 126.5 94.54 123.52 94.43 120.54 94.31 117.57 94.19 114.59 94.07 111.61 93.96 108.64 93.84 105.66 93.72 102.68 93.61 99.7 93.49 96.73 93.37 93.75 97.53 92.03 99.56 94.21 101.58 96.4 103.6 98.59 105.62 100.78 107.65 102.97 109.67 105.15 111.69 107.34 113.71 109.53 115.74 111.72 117.76 113.9 119.78 116.09"/><polygon class="cls-5" points="91.08 139.09 88.03 138.88 85 138.49 82 137.92 79.03 137.18 76.12 136.27 73.26 135.18 70.48 133.93 67.77 132.51 65.15 130.94 62.62 129.22 60.2 127.35 57.9 125.35 59.95 123.12 62.01 120.9 64.06 118.68 66.11 116.46 68.17 114.24 70.22 112.02 72.27 109.8 74.33 107.58 76.38 105.35 78.43 103.13 80.49 100.91 82.54 98.69 84.59 96.47 86.65 94.25 88.7 92.03 92.86 93.75 92.74 96.77 92.62 99.8 92.51 102.82 92.39 105.84 92.27 108.86 92.15 111.89 92.03 114.91 91.91 117.93 91.79 120.95 91.67 123.98 91.56 127 91.44 130.02 91.32 133.04 91.2 136.07 91.08 139.09"/><polygon class="cls-5" points="71.31 107.41 69.39 105.11 67.71 102.62 66.29 99.98 65.14 97.21 64.28 94.34 63.71 91.4 63.44 88.41 66.34 88.3 69.24 88.19 72.13 88.07 75.03 87.96 77.93 87.85 80.82 87.73 83.72 87.62 86.62 87.5 88.34 91.67 86.21 93.63 84.08 95.6 81.95 97.57 79.82 99.54 77.7 101.5 75.57 103.47 73.44 105.44 71.31 107.41"/><polygon class="cls-5" points="59.63 85.93 59.88 82.98 60.39 80.07 61.15 77.21 62.16 74.42 63.41 71.74 64.89 69.18 66.6 66.76 68.51 64.5 70.71 66.54 72.92 68.58 75.12 70.61 77.32 72.65 79.53 74.69 81.73 76.72 83.93 78.76 86.14 80.8 88.34 82.83 86.62 86.99 83.62 86.88 80.62 86.76 77.62 86.64 74.62 86.52 71.63 86.4 68.63 86.29 65.63 86.17 62.63 86.05 59.63 85.93"/><polygon class="cls-5" points="73.62 66.15 75.84 64.29 78.24 62.67 80.8 61.3 83.48 60.19 86.25 59.35 89.1 58.8 91.99 58.54 92.11 61.71 92.24 64.89 92.36 68.06 92.49 71.23 92.61 74.4 92.74 77.58 92.86 80.75 88.7 82.47 86.55 80.14 84.39 77.81 82.24 75.48 80.08 73.15 77.93 70.81 75.77 68.48 73.62 66.15"/><path class="cls-5" d="m127.09,3.01c0,.51-.05.96-.16,1.34-.11.38-.26.69-.46.94-.19.25-.42.43-.69.55-.26.12-.55.18-.86.18s-.59-.06-.85-.18c-.26-.12-.49-.3-.68-.55-.19-.25-.34-.56-.45-.94-.11-.38-.16-.82-.16-1.34s.05-.96.16-1.34c.11-.38.26-.69.45-.94.19-.25.42-.43.68-.55.26-.12.55-.18.85-.18s.59.06.86.18c.26.12.49.31.69.55.19.25.35.56.46.94.11.38.16.82.16,1.34Zm-1.04,0c0-.43-.03-.78-.09-1.06-.06-.28-.15-.5-.25-.67-.1-.17-.22-.28-.36-.35-.14-.07-.28-.1-.42-.1s-.28.03-.42.1c-.13.07-.25.18-.36.35-.1.17-.19.39-.25.67-.06.28-.09.63-.09,1.06s.03.78.09,1.06c.06.28.14.5.25.67s.22.28.36.35.27.1.42.1.29-.03.42-.1c.14-.07.26-.18.36-.35s.19-.39.25-.67c.06-.28.09-.63.09-1.06Z"/><path class="cls-5" d="m127.57,5.4c0-.08.02-.16.05-.24.03-.08.07-.14.13-.2.05-.05.12-.1.2-.13.08-.03.16-.05.24-.05s.17.02.24.05.14.08.2.13.1.12.13.2c.03.08.05.16.05.24s-.02.17-.05.24c-.03.07-.08.14-.13.19-.06.05-.12.1-.2.13s-.16.05-.24.05-.17-.02-.24-.05c-.08-.03-.14-.07-.2-.13-.05-.05-.1-.12-.13-.19-.03-.07-.05-.16-.05-.24Z"/><path class="cls-5" d="m133.59,3.73v.58c0,.05-.02.1-.05.14-.04.04-.09.06-.15.06h-.54v1.44h-.88v-1.44h-2.48c-.07,0-.13-.02-.18-.06s-.08-.09-.1-.16l-.11-.51,2.79-3.73h.95v3.67h.74Zm-1.62,0v-1.93c0-.18.01-.38.04-.6l-1.83,2.53h1.79Z"/><path class="cls-5" d="m135.85,2.2l-.2.25c.11-.06.24-.1.37-.13.13-.03.27-.05.43-.05.22,0,.44.04.65.11s.4.18.56.33.29.33.39.55c.1.22.15.48.15.77,0,.27-.05.53-.15.77-.1.24-.24.45-.42.63-.18.18-.4.32-.66.42-.26.1-.54.16-.85.16s-.6-.05-.85-.15c-.25-.1-.46-.24-.64-.42s-.31-.4-.41-.65c-.09-.25-.14-.54-.14-.84,0-.28.06-.56.17-.85s.29-.59.52-.91l1.4-1.89c.05-.06.12-.12.21-.17.09-.05.2-.07.32-.07h.9l-1.75,2.14Zm.23,2.99c.16,0,.31-.03.44-.08.13-.05.25-.13.35-.23.1-.1.17-.21.23-.34.05-.13.08-.28.08-.43,0-.17-.03-.32-.08-.45-.05-.13-.12-.25-.22-.34s-.21-.17-.34-.21c-.13-.05-.28-.07-.44-.07s-.31.03-.44.08c-.13.05-.24.13-.33.23-.09.1-.16.21-.22.34-.05.13-.08.27-.08.43,0,.16.02.31.07.45s.11.25.2.34c.09.09.2.17.33.22.13.05.28.08.45.08Z"/><path class="cls-4" d="m53.6,14.98s.07.02.1.05l.28.3c-.22.25-.48.44-.78.58s-.68.21-1.11.21c-.38,0-.72-.07-1.03-.2-.31-.13-.57-.31-.79-.55s-.39-.52-.51-.85c-.12-.33-.18-.69-.18-1.09s.06-.76.19-1.09c.12-.33.3-.61.53-.85s.5-.42.81-.55c.32-.13.66-.2,1.04-.2s.7.06.99.18c.29.12.54.28.76.49l-.23.33s-.03.04-.06.06-.05.02-.09.02c-.04,0-.1-.02-.16-.07-.06-.05-.15-.1-.25-.16-.1-.06-.23-.11-.38-.16s-.34-.07-.57-.07c-.27,0-.52.05-.74.14-.22.09-.42.23-.58.41-.16.18-.29.4-.38.65-.09.26-.14.55-.14.87s.05.62.14.88c.09.26.22.47.38.65.16.18.35.31.58.4s.46.14.72.14c.16,0,.3,0,.42-.03.13-.02.24-.05.35-.09.11-.04.21-.09.3-.15.09-.06.18-.13.27-.21.04-.04.08-.05.12-.05Z"/><path class="cls-4" d="m55.18,13.1c.12-.25.26-.45.43-.6.17-.14.38-.21.63-.21.08,0,.15,0,.23.03.07.02.14.04.19.08l-.05.49c-.01.06-.05.09-.11.09-.03,0-.08,0-.15-.02-.07-.01-.14-.02-.22-.02-.12,0-.22.02-.31.05-.09.03-.17.09-.25.15-.07.07-.14.15-.19.25-.06.1-.11.21-.16.34v2.34h-.66v-3.71h.37c.07,0,.12.01.15.04s.05.07.05.14l.04.56Z"/><path class="cls-4" d="m57.98,11.19c0,.06-.01.12-.04.18-.03.05-.06.1-.1.15-.04.04-.09.08-.15.1-.06.02-.12.04-.18.04s-.12-.01-.18-.04c-.05-.02-.1-.06-.14-.1-.04-.04-.07-.09-.1-.15-.02-.05-.04-.11-.04-.18s.01-.12.04-.18c.02-.06.06-.11.1-.15.04-.04.09-.08.14-.1.06-.02.11-.04.18-.04s.12.01.18.04c.06.02.11.06.15.1.04.04.08.09.1.15.03.06.04.12.04.18Zm-.14,1.16v3.71h-.65v-3.71h.65Z"/><path class="cls-4" d="m58.84,16.07v-3.71h.39c.09,0,.15.05.17.14l.05.38c.14-.17.29-.31.46-.41s.37-.16.59-.16c.25,0,.45.07.61.21s.27.33.34.56c.05-.13.12-.25.21-.35s.18-.18.28-.24.22-.11.34-.14.24-.04.36-.04c.2,0,.37.03.52.09.15.06.28.15.39.27.11.12.19.27.24.44.06.17.08.37.08.6v2.36h-.66v-2.36c0-.29-.06-.51-.19-.66-.13-.15-.31-.23-.55-.23-.11,0-.21.02-.31.06-.1.04-.18.09-.25.17s-.13.17-.17.28c-.04.11-.06.24-.06.39v2.36h-.66v-2.36c0-.3-.06-.52-.18-.67-.12-.15-.29-.22-.52-.22-.16,0-.31.04-.45.13s-.26.21-.38.35v2.77h-.66Z"/><path class="cls-4" d="m65.63,11.19c0,.06-.01.12-.04.18-.03.05-.06.1-.1.15-.04.04-.09.08-.15.1-.06.02-.12.04-.18.04s-.12-.01-.18-.04c-.05-.02-.1-.06-.14-.1-.04-.04-.07-.09-.1-.15-.02-.05-.04-.11-.04-.18s.01-.12.04-.18c.02-.06.06-.11.1-.15.04-.04.09-.08.14-.1.06-.02.11-.04.18-.04s.12.01.18.04c.06.02.11.06.15.1.04.04.08.09.1.15.03.06.04.12.04.18Zm-.14,1.16v3.71h-.65v-3.71h.65Z"/><path class="cls-4" d="m67.11,12.89c.08-.09.17-.17.26-.24.09-.07.19-.14.29-.19.1-.05.21-.09.32-.12.11-.03.24-.04.37-.04.2,0,.38.03.54.1.16.07.28.16.39.29.1.12.18.27.24.44.05.17.08.37.08.58v2.36h-.66v-2.36c0-.28-.06-.5-.19-.65-.13-.16-.32-.23-.58-.23-.19,0-.37.05-.54.14s-.32.22-.46.38v2.73h-.66v-3.71h.39c.09,0,.15.05.17.14l.05.4Z"/><path class="cls-4" d="m70.42,12.88c.21-.2.43-.35.66-.44.24-.1.5-.15.79-.15.21,0,.39.03.55.1.16.07.3.16.41.29.11.12.19.27.25.44.06.17.08.36.08.57v2.37h-.29c-.06,0-.11-.01-.15-.03s-.06-.06-.08-.12l-.07-.35c-.1.09-.19.17-.29.24-.09.07-.19.13-.29.18s-.21.08-.33.11c-.12.03-.24.04-.39.04s-.28-.02-.41-.06c-.13-.04-.24-.1-.33-.18-.09-.08-.17-.18-.22-.31-.05-.12-.08-.27-.08-.44,0-.15.04-.29.12-.42.08-.14.21-.26.39-.36.18-.1.42-.19.71-.26.29-.07.65-.11,1.07-.12v-.29c0-.29-.06-.51-.19-.65-.12-.15-.31-.22-.55-.22-.16,0-.3.02-.41.06-.11.04-.2.09-.28.14-.08.05-.15.1-.21.14-.06.04-.11.06-.17.06-.04,0-.08-.01-.11-.03-.03-.02-.06-.05-.08-.09l-.12-.21Zm2.11,1.52c-.3,0-.56.03-.77.07-.21.04-.38.09-.52.15s-.23.13-.29.22c-.06.08-.09.18-.09.28s.02.18.05.25.08.13.13.17.12.08.19.1c.07.02.15.03.24.03.11,0,.22-.01.32-.03.1-.02.18-.06.27-.1.08-.04.16-.1.24-.16.08-.06.15-.13.23-.21v-.77Z"/><path class="cls-4" d="m74.76,10.67v5.4h-.65v-5.4h.65Z"/><path class="cls-4" d="m53.88,21.41c0,.29-.04.56-.11.79-.07.23-.18.43-.32.59-.14.16-.31.28-.52.37-.21.09-.44.13-.71.13-.24,0-.49-.03-.74-.1,0-.07.01-.14.02-.21,0-.07.01-.14.02-.21,0-.04.02-.08.05-.1s.07-.04.12-.04c.04,0,.1.01.17.03.07.02.17.03.29.03.16,0,.31-.02.43-.07.13-.05.23-.12.32-.23.09-.1.15-.23.2-.39.05-.16.07-.35.07-.57v-3.45h.71v3.44Zm4.01-1.9v3.71h-.39c-.09,0-.15-.05-.18-.14l-.05-.4c-.16.18-.34.32-.54.43-.2.11-.43.16-.69.16-.2,0-.38-.03-.54-.1-.16-.07-.29-.16-.39-.28-.11-.12-.18-.27-.24-.44-.05-.17-.08-.37-.08-.58v-2.37h.65v2.37c0,.28.06.5.19.65.13.15.32.23.59.23.19,0,.37-.05.54-.14.17-.09.32-.22.46-.38v-2.73h.65Zm3.12.61c-.03.05-.07.08-.14.08-.04,0-.08-.01-.12-.04-.05-.03-.1-.06-.17-.09-.07-.03-.15-.06-.24-.09-.09-.03-.2-.04-.33-.04-.11,0-.21.01-.3.04-.09.03-.16.07-.23.12-.06.05-.11.11-.14.17-.03.06-.05.14-.05.21,0,.1.03.17.08.24.05.06.13.12.22.16.09.05.19.09.31.12.11.04.23.07.35.11s.24.08.35.13c.11.05.22.11.31.18.09.07.16.16.22.27.05.11.08.23.08.38,0,.17-.03.33-.09.47-.06.15-.15.27-.27.38-.12.11-.27.19-.44.25-.17.06-.37.09-.6.09-.26,0-.49-.04-.7-.13-.21-.08-.39-.19-.53-.32l.15-.25s.04-.06.07-.07c.03-.02.06-.03.1-.03.04,0,.09.02.14.05.05.03.11.07.18.11.07.04.15.08.25.11.1.03.22.05.37.05.13,0,.24-.02.33-.05.1-.03.17-.08.24-.13.06-.06.11-.12.14-.19.03-.07.05-.15.05-.23,0-.1-.03-.19-.08-.25-.05-.07-.13-.12-.22-.17-.09-.05-.19-.09-.31-.12-.12-.04-.23-.07-.36-.11-.12-.04-.24-.08-.36-.13-.12-.05-.22-.11-.31-.19-.09-.08-.16-.17-.22-.28-.05-.11-.08-.25-.08-.4,0-.14.03-.28.09-.41.06-.13.14-.25.26-.34.11-.1.25-.18.41-.24.16-.06.35-.09.56-.09.24,0,.46.04.66.12s.36.18.5.32l-.15.24Zm4.38,3.1h-.65v-3.17h-1.91v2.23c0,.16.04.27.11.35.08.08.17.11.29.11.07,0,.13,0,.18-.03.05-.02.09-.04.13-.06.04-.02.07-.04.09-.06.03-.02.05-.03.07-.03.03,0,.06.02.09.06l.19.31c-.11.11-.25.19-.41.25-.16.06-.32.09-.49.09-.29,0-.52-.08-.68-.25-.16-.16-.24-.4-.24-.71v-2.27h-.45s-.07-.01-.1-.03c-.03-.02-.04-.06-.04-.11v-.26l.61-.08.15-1.14s.02-.07.05-.09c.03-.02.06-.03.1-.03h.33v1.28h2.56v3.64Zm.16-4.9c0,.06-.01.12-.04.18-.03.05-.06.1-.1.14-.04.04-.09.07-.15.1-.06.02-.12.04-.18.04s-.12-.01-.18-.04c-.05-.02-.1-.06-.14-.1-.04-.04-.07-.09-.1-.14-.02-.05-.04-.11-.04-.18s.01-.12.04-.18c.02-.06.06-.11.1-.15.04-.04.09-.08.14-.1.05-.02.11-.04.18-.04s.12.01.18.04c.06.02.11.06.15.1.04.04.08.09.1.15.03.06.04.12.04.18Zm3.42,1.85s-.04.05-.06.06c-.02.01-.05.02-.08.02-.04,0-.08-.02-.12-.05-.04-.03-.1-.06-.16-.1-.06-.04-.14-.07-.24-.1-.09-.03-.21-.05-.35-.05-.18,0-.34.03-.48.1-.14.06-.26.16-.35.28-.09.12-.16.27-.21.44-.05.17-.07.37-.07.58s.03.42.08.6c.05.17.12.32.22.44.09.12.21.21.34.27.13.06.28.09.45.09s.29-.02.39-.06c.1-.04.19-.08.25-.13.07-.05.12-.09.17-.13.05-.04.09-.06.13-.06.05,0,.1.02.12.06l.18.24c-.08.1-.17.19-.27.26-.1.07-.21.13-.33.18-.12.05-.24.08-.37.1-.13.02-.26.03-.4.03-.23,0-.45-.04-.65-.13-.2-.09-.37-.21-.52-.37-.15-.16-.26-.36-.34-.6-.08-.24-.12-.51-.12-.81,0-.28.04-.53.12-.77.08-.23.19-.44.34-.61.15-.17.33-.3.55-.4.22-.1.46-.14.75-.14.26,0,.49.04.69.13.2.08.38.2.53.36l-.17.23Zm3.79,2.53c-.08.1-.18.18-.29.25-.11.07-.23.13-.36.18-.13.05-.26.08-.4.1-.14.02-.27.03-.41.03-.26,0-.49-.04-.71-.13-.22-.09-.4-.21-.56-.38-.16-.17-.28-.37-.37-.62-.09-.25-.13-.53-.13-.85,0-.26.04-.5.12-.73.08-.22.19-.42.34-.58.15-.16.33-.29.55-.39.21-.09.46-.14.73-.14.22,0,.43.04.62.11.19.07.35.18.49.32.14.14.25.31.32.52.08.21.12.44.12.71,0,.1-.01.17-.03.21-.02.03-.06.05-.12.05h-2.48c0,.23.04.44.1.61.06.17.14.32.24.43.1.12.22.2.37.26.14.06.3.09.48.09.16,0,.3-.02.42-.06.12-.04.22-.08.31-.12.09-.04.16-.08.21-.12.06-.04.11-.06.15-.06.05,0,.1.02.12.06l.18.24Zm-.53-1.74c0-.15-.02-.29-.06-.42-.04-.13-.11-.23-.19-.33-.08-.09-.18-.16-.3-.21-.12-.05-.25-.08-.4-.08-.31,0-.56.09-.74.27-.18.18-.29.43-.34.76h2.03Z"/><path class="cls-5" d="m58.84,4.01c0,.51-.05.96-.16,1.34-.11.38-.26.69-.46.94-.19.25-.42.43-.69.55-.26.12-.55.18-.86.18s-.59-.06-.85-.18c-.26-.12-.49-.3-.68-.55-.19-.25-.34-.56-.45-.94-.11-.38-.16-.82-.16-1.34s.05-.96.16-1.34c.11-.38.26-.69.45-.94.19-.25.42-.43.68-.55.26-.12.55-.18.85-.18s.59.06.86.18c.26.12.49.31.69.55.19.25.35.56.46.94.11.38.16.82.16,1.34Zm-1.04,0c0-.43-.03-.78-.09-1.06-.06-.28-.15-.5-.25-.67-.1-.17-.22-.28-.36-.35-.14-.07-.28-.1-.42-.1s-.28.03-.42.1c-.13.07-.25.18-.36.35-.1.17-.19.39-.25.67-.06.28-.09.63-.09,1.06s.03.78.09,1.06c.06.28.14.5.25.67s.22.28.36.35.27.1.42.1.29-.03.42-.1c.14-.07.26-.18.36-.35s.19-.39.25-.67c.06-.28.09-.63.09-1.06Z"/><path class="cls-5" d="m59.32,6.4c0-.08.02-.16.05-.24.03-.08.07-.14.13-.2.05-.05.12-.1.2-.13.08-.03.16-.05.24-.05s.17.02.24.05.14.08.2.13.1.12.13.2c.03.08.05.16.05.24s-.02.17-.05.24c-.03.07-.08.14-.13.19-.06.05-.12.1-.2.13s-.16.05-.24.05-.17-.02-.24-.05c-.08-.03-.14-.07-.2-.13-.05-.05-.1-.12-.13-.19-.03-.07-.05-.16-.05-.24Z"/><path class="cls-5" d="m65.34,4.73v.58c0,.05-.02.1-.05.14-.04.04-.09.06-.15.06h-.54v1.44h-.88v-1.44h-2.48c-.07,0-.13-.02-.18-.06s-.08-.09-.1-.16l-.11-.51,2.79-3.73h.95v3.67h.74Zm-1.62,0v-1.93c0-.18.01-.38.04-.6l-1.83,2.53h1.79Z"/><path class="cls-5" d="m69.99,4.73v.58c0,.05-.02.1-.05.14-.04.04-.09.06-.15.06h-.54v1.44h-.88v-1.44h-2.48c-.07,0-.13-.02-.18-.06s-.08-.09-.1-.16l-.11-.51,2.79-3.73h.95v3.67h.74Zm-1.62,0v-1.93c0-.18.01-.38.04-.6l-1.83,2.53h1.79Z"/><path class="cls-4" d="m15.8,66.78s.07.02.1.05l.28.3c-.22.25-.48.44-.78.58s-.68.21-1.11.21c-.38,0-.72-.07-1.03-.2-.31-.13-.57-.31-.79-.55s-.39-.52-.51-.85c-.12-.33-.18-.69-.18-1.09s.06-.76.19-1.09c.12-.33.3-.61.53-.85s.5-.42.81-.55c.32-.13.66-.2,1.04-.2s.7.06.99.18c.29.12.54.28.76.49l-.23.33s-.03.04-.06.06-.05.02-.09.02c-.04,0-.1-.02-.16-.07-.06-.05-.15-.1-.25-.16-.1-.06-.23-.11-.38-.16s-.34-.07-.57-.07c-.27,0-.52.05-.74.14-.22.09-.42.23-.58.41-.16.18-.29.4-.38.65-.09.26-.14.55-.14.87s.05.62.14.88c.09.26.22.47.38.65.16.18.35.31.58.4s.46.14.72.14c.16,0,.3,0,.42-.03.13-.02.24-.05.35-.09.11-.04.21-.09.3-.15.09-.06.18-.13.27-.21.04-.04.08-.05.12-.05Z"/><path class="cls-4" d="m17.61,62.98c0,.06-.01.12-.04.18-.03.05-.06.1-.1.15-.04.04-.09.08-.15.1-.06.02-.12.04-.18.04s-.12-.01-.18-.04c-.05-.02-.1-.06-.14-.1-.04-.04-.07-.09-.1-.15-.02-.05-.04-.11-.04-.18s.01-.12.04-.18c.02-.06.06-.11.1-.15.04-.04.09-.08.14-.1.06-.02.11-.04.18-.04s.12.01.18.04c.06.02.11.06.15.1.04.04.08.09.1.15.03.06.04.12.04.18Zm-.14,1.16v3.71h-.65v-3.71h.65Z"/><path class="cls-4" d="m21.66,64.15l-1.51,3.71h-.59l-1.51-3.71h.53c.05,0,.1.01.13.04s.06.06.07.1l.94,2.39c.03.09.05.18.08.26.02.09.04.17.06.26.02-.09.04-.17.06-.26.02-.09.05-.17.08-.26l.95-2.39s.04-.07.07-.1c.03-.03.07-.04.12-.04h.51Z"/><path class="cls-4" d="m23.02,62.98c0,.06-.01.12-.04.18-.03.05-.06.1-.1.15-.04.04-.09.08-.15.1-.06.02-.12.04-.18.04s-.12-.01-.18-.04c-.05-.02-.1-.06-.14-.1-.04-.04-.07-.09-.1-.15-.02-.05-.04-.11-.04-.18s.01-.12.04-.18c.02-.06.06-.11.1-.15.04-.04.09-.08.14-.1.06-.02.11-.04.18-.04s.12.01.18.04c.06.02.11.06.15.1.04.04.08.09.1.15.03.06.04.12.04.18Zm-.14,1.16v3.71h-.65v-3.71h.65Z"/><path class="cls-4" d="m24.56,62.46v5.4h-.65v-5.4h.65Z"/><path class="cls-4" d="m9.89,73c0,.29-.04.56-.11.79-.07.23-.18.43-.32.59-.14.16-.31.28-.52.37-.21.09-.44.13-.71.13-.24,0-.49-.03-.74-.1,0-.07.01-.14.02-.21,0-.07.01-.14.02-.21,0-.04.02-.08.05-.1.03-.03.07-.04.12-.04.04,0,.1.01.17.03.07.02.17.03.29.03.16,0,.31-.02.43-.07.13-.05.23-.12.32-.23.09-.1.15-.23.2-.39.05-.16.07-.35.07-.57v-3.45h.71v3.44Zm4.01-1.9v3.71h-.39c-.09,0-.15-.05-.18-.14l-.05-.4c-.16.18-.34.32-.54.43-.2.11-.43.16-.69.16-.2,0-.38-.03-.54-.1-.16-.07-.29-.16-.39-.28-.11-.12-.18-.27-.24-.44-.05-.17-.08-.37-.08-.58v-2.37h.65v2.37c0,.28.06.5.19.65.13.15.32.23.59.23.19,0,.37-.05.54-.14.17-.09.32-.22.46-.38v-2.73h.65Zm3.12.61c-.03.05-.07.08-.14.08-.04,0-.08-.01-.12-.04-.05-.03-.1-.06-.17-.09-.07-.03-.15-.06-.24-.09-.09-.03-.2-.04-.33-.04-.11,0-.21.01-.3.04-.09.03-.16.07-.23.12-.06.05-.11.11-.14.17-.03.06-.05.13-.05.21,0,.1.03.17.08.24.05.06.13.12.22.16.09.05.19.09.31.12.11.04.23.07.35.11s.24.08.35.13c.11.05.22.11.31.18.09.07.16.16.22.27s.08.23.08.38c0,.17-.03.33-.09.47-.06.15-.15.27-.27.38-.12.11-.27.19-.44.25-.17.06-.37.09-.6.09-.26,0-.49-.04-.7-.13-.21-.08-.39-.19-.53-.32l.15-.25s.04-.06.07-.07c.03-.02.06-.03.1-.03.04,0,.09.02.14.05.05.03.11.07.18.11.07.04.15.08.25.11.1.03.22.05.37.05.13,0,.24-.02.33-.05.1-.03.17-.08.24-.13.06-.06.11-.12.14-.19.03-.07.05-.15.05-.23,0-.1-.03-.19-.08-.25-.05-.07-.13-.12-.22-.17-.09-.05-.19-.09-.31-.12-.12-.04-.23-.07-.36-.11-.12-.04-.24-.08-.36-.13-.12-.05-.22-.11-.31-.19-.09-.08-.16-.17-.22-.28-.05-.11-.08-.25-.08-.4,0-.14.03-.28.09-.41.06-.13.14-.25.26-.34.11-.1.25-.18.41-.24.16-.06.35-.09.56-.09.24,0,.46.04.66.12.19.08.36.18.5.32l-.15.24Zm4.38,3.1h-.65v-3.17h-1.91v2.23c0,.16.04.27.11.35.08.08.17.11.29.11.07,0,.13,0,.18-.03.05-.02.09-.04.13-.06.04-.02.07-.04.09-.06.03-.02.05-.03.07-.03.03,0,.06.02.09.06l.19.31c-.11.11-.25.19-.41.25-.16.06-.32.09-.49.09-.29,0-.52-.08-.68-.25-.16-.16-.24-.4-.24-.71v-2.27h-.45s-.07-.01-.1-.03c-.03-.02-.04-.06-.04-.11v-.26l.61-.08.15-1.14s.02-.07.05-.09c.03-.02.06-.03.1-.03h.33v1.28h2.56v3.64Zm.16-4.9c0,.06-.01.12-.04.18s-.06.1-.1.14c-.04.04-.09.07-.15.1-.06.02-.12.04-.18.04s-.12-.01-.18-.04c-.05-.02-.1-.06-.14-.1-.04-.04-.07-.09-.1-.14-.02-.05-.04-.11-.04-.18s.01-.12.04-.18c.02-.06.06-.11.1-.15.04-.04.09-.08.14-.1.05-.02.11-.04.18-.04s.12.01.18.04c.06.02.11.06.15.1.04.04.08.09.1.15.03.06.04.12.04.18Zm3.42,1.85s-.04.05-.06.06c-.02.01-.05.02-.08.02-.04,0-.08-.02-.12-.05-.04-.03-.1-.06-.16-.1-.06-.04-.14-.07-.24-.1-.09-.03-.21-.05-.35-.05-.18,0-.34.03-.48.1-.14.06-.26.16-.35.28-.09.12-.16.27-.21.44-.05.17-.07.37-.07.58s.03.42.08.6c.05.17.12.32.22.44.09.12.21.21.34.27.13.06.28.09.45.09s.29-.02.39-.06c.1-.04.19-.08.25-.13.07-.05.12-.09.17-.13.05-.04.09-.06.13-.06.05,0,.1.02.12.06l.18.24c-.08.1-.17.19-.27.26-.1.07-.21.13-.33.18-.12.05-.24.08-.37.1-.13.02-.26.03-.4.03-.23,0-.45-.04-.65-.13-.2-.09-.37-.21-.52-.37-.15-.16-.26-.36-.34-.6-.08-.24-.12-.51-.12-.81,0-.28.04-.53.12-.77.08-.23.19-.44.34-.61.15-.17.33-.3.55-.4.22-.1.46-.14.75-.14.26,0,.49.04.69.13.2.08.38.2.53.36l-.17.23Zm3.79,2.53c-.08.1-.18.18-.29.25-.11.07-.23.13-.36.18-.13.05-.26.08-.4.1-.14.02-.27.03-.41.03-.26,0-.49-.04-.71-.13s-.4-.21-.56-.38c-.16-.17-.28-.37-.37-.62-.09-.25-.13-.53-.13-.85,0-.26.04-.5.12-.73.08-.22.19-.42.34-.58.15-.16.33-.29.55-.39.21-.09.46-.14.73-.14.22,0,.43.04.62.11.19.07.35.18.49.32.14.14.25.31.32.52.08.21.12.44.12.71,0,.1-.01.17-.03.21-.02.03-.06.05-.12.05h-2.48c0,.23.04.44.1.61.06.17.14.32.24.43.1.12.22.2.37.26.14.06.3.09.48.09.16,0,.3-.02.42-.06.12-.04.22-.08.31-.12.09-.04.16-.08.21-.12.06-.04.11-.06.15-.06.05,0,.1.02.12.06l.18.24Zm-.53-1.74c0-.15-.02-.29-.06-.42-.04-.13-.11-.23-.19-.33-.08-.09-.18-.16-.3-.21-.12-.05-.25-.08-.4-.08-.31,0-.56.09-.74.27-.18.18-.29.43-.34.76h2.03Z"/><path class="cls-5" d="m14.83,54.97c0,.51-.05.96-.16,1.34-.11.38-.26.69-.46.94-.19.25-.42.43-.69.55-.26.12-.55.18-.86.18s-.59-.06-.85-.18c-.26-.12-.49-.3-.68-.55-.19-.25-.34-.56-.45-.94-.11-.38-.16-.82-.16-1.34s.05-.96.16-1.34c.11-.38.26-.69.45-.94.19-.25.42-.43.68-.55.26-.12.55-.18.85-.18s.59.06.86.18c.26.12.49.31.69.55.19.25.35.56.46.94.11.38.16.82.16,1.34Zm-1.04,0c0-.43-.03-.78-.09-1.06-.06-.28-.15-.5-.25-.67-.1-.17-.22-.28-.36-.35-.14-.07-.28-.1-.42-.1s-.28.03-.42.1c-.13.07-.25.18-.36.35-.1.17-.19.39-.25.67-.06.28-.09.63-.09,1.06s.03.78.09,1.06c.06.28.14.5.25.67s.22.28.36.35.27.1.42.1.29-.03.42-.1c.14-.07.26-.18.36-.35s.19-.39.25-.67c.06-.28.09-.63.09-1.06Z"/><path class="cls-5" d="m15.31,57.36c0-.08.02-.16.05-.24.03-.08.07-.14.13-.2.05-.05.12-.1.2-.13.08-.03.16-.05.24-.05s.17.02.24.05.14.08.2.13.1.12.13.2c.03.08.05.16.05.24s-.02.17-.05.24c-.03.07-.08.14-.13.19-.06.05-.12.1-.2.13s-.16.05-.24.05-.17-.02-.24-.05c-.08-.03-.14-.07-.2-.13-.05-.05-.1-.12-.13-.19-.03-.07-.05-.16-.05-.24Z"/><path class="cls-5" d="m18.46,54.17c.13-.03.26-.05.37-.06.12-.01.23-.02.35-.02.31,0,.58.05.82.14s.43.22.59.38c.16.16.28.35.36.57.08.22.12.45.12.71,0,.31-.05.6-.16.85-.11.26-.26.48-.46.66-.2.18-.43.33-.69.43-.27.1-.56.15-.87.15-.18,0-.36-.02-.53-.06-.17-.04-.32-.09-.47-.15s-.28-.14-.4-.22c-.12-.08-.23-.17-.33-.26l.31-.43c.07-.09.15-.14.26-.14.07,0,.14.02.21.07.07.04.15.09.24.14.09.05.2.1.32.14.12.04.27.07.45.07.18,0,.35-.03.49-.09.14-.06.26-.14.35-.25.09-.11.16-.24.21-.38s.07-.31.07-.48c0-.32-.09-.57-.28-.75-.19-.18-.46-.27-.82-.27-.28,0-.57.05-.86.16l-.63-.18.49-2.86h2.91v.43c0,.14-.04.26-.13.35-.09.09-.24.13-.46.13h-1.62l-.21,1.23Z"/><path class="cls-5" d="m25.45,56.98c.11,0,.19.03.26.09.06.06.1.14.1.24v.6h-4.04v-.33c0-.07.01-.14.04-.21.03-.07.07-.14.14-.2l1.79-1.79c.15-.15.28-.3.4-.44s.22-.28.3-.41c.08-.14.14-.27.18-.41.04-.14.06-.29.06-.44,0-.14-.02-.27-.06-.37-.04-.11-.1-.2-.17-.27-.07-.07-.16-.13-.27-.16s-.22-.05-.35-.05c-.12,0-.23.02-.33.05-.1.03-.19.08-.27.14s-.15.13-.2.21c-.05.08-.1.17-.12.27-.05.12-.11.21-.18.25s-.18.05-.32.03l-.53-.09c.04-.28.12-.53.24-.74.12-.21.26-.39.44-.53s.38-.25.6-.32c.23-.07.47-.11.73-.11s.52.04.74.12c.23.08.42.19.58.34.16.15.28.32.37.53.09.21.13.44.13.69,0,.22-.03.42-.1.6-.06.18-.15.36-.26.53-.11.17-.23.33-.38.49-.14.16-.29.32-.45.48l-1.33,1.36c.13-.04.25-.07.38-.09.13-.02.25-.03.36-.03h1.51Z"/><path class="cls-4" d="m7.18,122.01h-.63c-.13,0-.22-.05-.29-.15l-1.36-1.88c-.04-.06-.09-.1-.13-.13-.05-.03-.12-.04-.22-.04h-.54v2.19h-.71v-5.25h1.48c.33,0,.62.03.86.1.24.07.44.16.6.29.16.13.27.28.35.46.08.18.11.38.11.6,0,.19-.03.36-.09.52-.06.16-.14.31-.25.43-.11.13-.25.24-.41.33-.16.09-.34.16-.54.21.09.05.17.13.23.22l1.53,2.08Zm-2.43-2.71c.21,0,.39-.03.54-.08s.29-.12.4-.21.19-.2.24-.33c.05-.13.08-.27.08-.42,0-.31-.1-.55-.31-.71-.21-.16-.51-.24-.92-.24h-.78v1.98h.75Z"/><path class="cls-4" d="m10.44,121.49c-.08.1-.18.18-.29.25-.11.07-.23.13-.36.18-.13.05-.26.08-.4.1s-.27.03-.41.03c-.26,0-.49-.04-.71-.13s-.4-.21-.56-.38c-.16-.17-.28-.37-.37-.62-.09-.25-.13-.53-.13-.85,0-.26.04-.5.12-.73.08-.22.19-.42.34-.58.15-.16.33-.29.55-.39.22-.09.46-.14.73-.14.22,0,.43.04.62.11s.35.18.49.32c.14.14.25.31.32.52.08.21.12.44.12.71,0,.1-.01.17-.03.21-.02.03-.06.05-.12.05h-2.48c0,.23.04.44.1.61s.14.32.24.43.22.2.37.26c.14.06.3.09.48.09.16,0,.3-.02.42-.06s.22-.08.31-.12c.09-.04.16-.09.21-.12.06-.04.11-.06.15-.06.05,0,.1.02.12.06l.18.24Zm-.53-1.74c0-.15-.02-.29-.06-.42-.04-.13-.11-.23-.19-.33-.08-.09-.18-.16-.3-.21-.12-.05-.25-.07-.4-.07-.31,0-.56.09-.74.27-.18.18-.3.43-.34.76h2.03Z"/><path class="cls-4" d="m14.36,118.45v.24c0,.08-.05.13-.15.15l-.42.05c.08.16.12.34.12.54,0,.18-.03.35-.1.49s-.17.27-.29.38c-.12.1-.27.19-.44.24-.17.06-.36.08-.56.08-.17,0-.34-.02-.49-.06-.08.05-.14.1-.18.16-.04.05-.06.11-.06.17,0,.09.04.15.11.2.07.05.17.08.28.1.12.02.25.03.4.04s.3.01.46.02.31.03.46.06c.15.03.28.07.4.13.12.06.21.14.28.25.07.11.11.25.11.42,0,.16-.04.31-.12.46-.08.15-.19.28-.34.4s-.33.21-.55.28c-.22.07-.46.1-.73.1s-.51-.03-.71-.08c-.2-.05-.37-.13-.51-.22-.13-.09-.23-.19-.3-.31s-.1-.24-.1-.37c0-.18.06-.34.17-.47.11-.13.27-.23.47-.3-.11-.05-.2-.11-.26-.2-.06-.08-.1-.19-.1-.33,0-.05,0-.11.03-.17s.05-.11.09-.17c.04-.06.09-.11.15-.16.06-.05.13-.1.21-.14-.18-.1-.33-.24-.43-.41-.1-.17-.15-.37-.15-.59,0-.18.03-.35.1-.49.07-.15.17-.27.29-.38.12-.1.27-.18.45-.24.17-.06.36-.08.57-.08.16,0,.31.02.45.05.14.03.27.09.38.16h1.01Zm-.66,3.77c0-.09-.03-.16-.08-.22-.05-.06-.12-.1-.21-.13s-.19-.05-.3-.07c-.11-.01-.24-.02-.36-.03-.13,0-.26-.02-.39-.02s-.26-.02-.38-.04c-.14.06-.25.14-.34.24-.09.1-.13.21-.13.34,0,.08.02.16.06.23.04.07.11.13.2.19.09.05.2.09.33.12.13.03.29.05.47.05s.33-.02.47-.05c.14-.03.26-.08.35-.14.1-.06.17-.13.22-.21.05-.08.08-.17.08-.27Zm-1.18-2.01c.13,0,.25-.02.35-.05s.18-.09.25-.15.12-.14.15-.24.05-.19.05-.3c0-.23-.07-.41-.21-.54-.14-.13-.34-.2-.6-.2s-.46.07-.6.2c-.14.13-.21.31-.21.54,0,.11.02.21.05.3.04.09.09.17.16.24s.15.12.25.15.22.05.35.05Z"/><path class="cls-4" d="m18.02,118.3v3.71h-.39c-.09,0-.15-.05-.18-.14l-.05-.4c-.16.18-.34.32-.54.43-.2.11-.43.16-.69.16-.2,0-.38-.03-.54-.1s-.29-.16-.39-.28-.18-.27-.24-.44-.08-.36-.08-.57v-2.37h.65v2.37c0,.28.06.5.19.65.13.15.32.23.59.23.19,0,.37-.05.54-.14.17-.09.32-.22.46-.38v-2.73h.65Z"/><path class="cls-4" d="m19.65,116.62v5.4h-.65v-5.4h.65Z"/><path class="cls-4" d="m20.54,118.83c.21-.2.43-.35.66-.44.24-.1.5-.15.79-.15.21,0,.39.03.55.1.16.07.3.16.41.29.11.12.19.27.25.44.06.17.08.36.08.57v2.37h-.29c-.06,0-.11-.01-.15-.03s-.06-.06-.08-.12l-.07-.35c-.1.09-.19.17-.29.24-.09.07-.19.13-.29.18s-.21.08-.33.11c-.12.03-.24.04-.39.04s-.28-.02-.41-.06c-.13-.04-.24-.1-.33-.18-.09-.08-.17-.18-.22-.31-.05-.12-.08-.27-.08-.44,0-.15.04-.29.12-.42.08-.14.21-.26.39-.36.18-.1.42-.19.71-.26.29-.07.65-.11,1.07-.12v-.29c0-.29-.06-.51-.19-.65-.12-.15-.31-.22-.55-.22-.16,0-.3.02-.41.06-.11.04-.2.09-.28.14-.08.05-.15.1-.21.14-.06.04-.11.06-.17.06-.04,0-.08-.01-.11-.03-.03-.02-.06-.05-.08-.09l-.12-.21Zm2.11,1.52c-.3,0-.56.03-.77.07-.21.04-.38.09-.52.15s-.23.13-.29.22c-.06.08-.09.18-.09.28s.02.18.05.25.08.13.13.17.12.08.19.1c.07.02.15.03.24.03.11,0,.22-.01.32-.03.1-.02.18-.06.27-.1.08-.04.16-.1.24-.16.08-.06.15-.13.23-.21v-.77Z"/><path class="cls-4" d="m25.3,122.07c-.29,0-.52-.08-.68-.25-.16-.16-.24-.4-.24-.71v-2.27h-.45s-.07-.01-.1-.03c-.03-.02-.04-.06-.04-.11v-.26l.61-.08.15-1.15s.02-.07.05-.09c.03-.02.06-.03.1-.03h.33v1.28h1.07v.47h-1.07v2.23c0,.16.04.27.11.35.08.08.17.11.29.11.07,0,.13,0,.18-.03s.09-.04.13-.06c.04-.02.07-.04.09-.06.03-.02.05-.03.07-.03.03,0,.06.02.09.06l.19.31c-.11.1-.25.19-.41.25-.16.06-.32.09-.49.09Z"/><path class="cls-4" d="m28.26,118.24c.27,0,.52.05.73.14s.4.22.56.38.27.37.35.6c.08.24.12.5.12.79s-.04.56-.12.79-.2.43-.35.6-.34.29-.56.38-.46.13-.73.13-.52-.05-.74-.13c-.22-.09-.41-.22-.56-.38s-.27-.37-.35-.6-.12-.5-.12-.79.04-.55.12-.79c.08-.24.2-.44.35-.6s.34-.29.56-.38c.22-.09.46-.14.74-.14Zm0,3.31c.37,0,.64-.12.82-.37s.27-.59.27-1.03-.09-.79-.27-1.03-.45-.37-.82-.37c-.19,0-.35.03-.49.1-.14.06-.25.16-.34.28-.09.12-.16.27-.21.44-.05.17-.07.37-.07.59,0,.44.09.78.27,1.03s.46.37.83.37Z"/><path class="cls-4" d="m31.41,119.05c.12-.25.26-.45.43-.6.17-.14.38-.21.63-.21.08,0,.15,0,.23.03.07.02.14.04.19.08l-.05.49c-.01.06-.05.09-.11.09-.03,0-.08,0-.15-.02-.07-.01-.14-.02-.22-.02-.12,0-.22.02-.31.05-.09.03-.17.09-.25.15-.07.07-.14.15-.19.25-.06.1-.11.21-.16.34v2.34h-.66v-3.71h.37c.07,0,.12.01.15.04s.05.07.05.14l.04.56Z"/><path class="cls-4" d="m36.59,118.3l-2.07,4.81s-.05.09-.08.12-.08.04-.15.04h-.48l.68-1.47-1.53-3.5h.56c.06,0,.1.01.13.04s.06.06.07.09l.99,2.34c.04.1.07.21.1.32.03-.11.07-.22.11-.33l.96-2.33s.04-.07.08-.1c.04-.03.08-.04.12-.04h.52Z"/><path class="cls-4" d="m3.24,129.39v.58H0v-5.25h3.24v.58H.71v1.74h2.04v.56H.71v1.79h2.53Z"/><path class="cls-4" d="m4.52,126.8c.08-.09.17-.17.26-.24.09-.07.19-.14.29-.19.1-.05.21-.09.32-.12.11-.03.24-.04.37-.04.2,0,.38.03.54.1.16.07.28.16.39.29.1.12.18.27.24.44.05.17.08.37.08.58v2.36h-.66v-2.36c0-.28-.06-.5-.19-.65-.13-.16-.32-.23-.58-.23-.19,0-.37.05-.54.14s-.32.22-.46.38v2.73h-.66v-3.71h.39c.09,0,.15.05.17.14l.05.4Z"/><path class="cls-4" d="m8.1,129.97v-3.15l-.41-.05c-.05-.01-.09-.03-.13-.06s-.05-.06-.05-.11v-.27h.59v-.36c0-.21.03-.4.09-.57.06-.17.15-.3.26-.42.11-.11.24-.2.4-.26.16-.06.33-.09.53-.09.17,0,.32.02.46.07v.33c-.02.06-.05.09-.11.1-.06,0-.14,0-.24,0-.11,0-.21.02-.31.04-.09.03-.17.08-.24.14s-.12.15-.15.26c-.04.11-.05.24-.05.4v.34h1.07v.47h-1.05v3.17h-.66Z"/><path class="cls-4" d="m11.8,126.2c.27,0,.52.05.73.14s.4.22.56.38.27.37.35.6c.08.24.12.5.12.79s-.04.56-.12.79-.2.43-.35.6-.34.29-.56.38-.46.13-.73.13-.52-.05-.74-.13c-.22-.09-.41-.22-.56-.38s-.27-.37-.35-.6-.12-.5-.12-.79.04-.55.12-.79c.08-.24.2-.44.35-.6s.34-.29.56-.38c.22-.09.46-.14.74-.14Zm0,3.31c.37,0,.64-.12.82-.37s.27-.59.27-1.03-.09-.79-.27-1.03-.45-.37-.82-.37c-.19,0-.35.03-.49.1-.14.06-.25.16-.34.28-.09.12-.16.27-.21.44-.05.17-.07.37-.07.59,0,.44.09.78.27,1.03s.46.37.83.37Z"/><path class="cls-4" d="m14.95,127c.12-.25.26-.45.43-.6.17-.14.38-.21.63-.21.08,0,.15,0,.23.03.07.02.14.04.19.08l-.05.49c-.01.06-.05.09-.11.09-.03,0-.08,0-.15-.02-.07-.01-.14-.02-.22-.02-.12,0-.22.02-.31.05-.09.03-.17.09-.25.15-.07.07-.14.15-.19.25-.06.1-.11.21-.16.34v2.34h-.66v-3.71h.37c.07,0,.12.01.15.04s.05.07.05.14l.04.56Z"/><path class="cls-4" d="m19.36,126.92s-.04.05-.06.06c-.02.01-.05.02-.08.02-.04,0-.08-.02-.12-.05-.04-.03-.1-.06-.16-.1s-.14-.07-.24-.1c-.09-.03-.21-.05-.35-.05-.18,0-.34.03-.48.1s-.26.16-.35.28c-.09.12-.16.27-.21.44s-.07.37-.07.58.03.42.08.6c.05.17.12.32.22.44.09.12.21.21.34.27s.28.09.45.09.29-.02.39-.06c.1-.04.19-.08.25-.13.07-.05.12-.09.17-.13.05-.04.09-.06.13-.06.05,0,.1.02.12.06l.18.24c-.08.1-.17.19-.27.26s-.21.13-.33.18-.24.08-.37.1c-.13.02-.26.03-.4.03-.23,0-.45-.04-.65-.13-.2-.09-.37-.21-.52-.37-.15-.16-.26-.36-.34-.6-.08-.24-.12-.51-.12-.81,0-.28.04-.53.12-.77.08-.23.19-.44.34-.61.15-.17.33-.3.55-.4.22-.1.46-.14.75-.14.26,0,.49.04.69.13s.38.2.53.36l-.17.23Z"/><path class="cls-4" d="m23.15,129.45c-.08.1-.18.18-.29.25-.11.07-.23.13-.36.18-.13.05-.26.08-.4.1s-.27.03-.41.03c-.26,0-.49-.04-.71-.13s-.4-.21-.56-.38c-.16-.17-.28-.37-.37-.62-.09-.25-.13-.53-.13-.85,0-.26.04-.5.12-.73.08-.22.19-.42.34-.58.15-.16.33-.29.55-.39.22-.09.46-.14.73-.14.22,0,.43.04.62.11s.35.18.49.32c.14.14.25.31.32.52.08.21.12.44.12.71,0,.1-.01.17-.03.21-.02.03-.06.05-.12.05h-2.48c0,.23.04.44.1.61s.14.32.24.43.22.2.37.26c.14.06.3.09.48.09.16,0,.3-.02.42-.06s.22-.08.31-.12c.09-.04.16-.09.21-.12.06-.04.11-.06.15-.06.05,0,.1.02.12.06l.18.24Zm-.53-1.74c0-.15-.02-.29-.06-.42-.04-.13-.11-.23-.19-.33-.08-.09-.18-.16-.3-.21-.12-.05-.25-.07-.4-.07-.31,0-.56.09-.74.27-.18.18-.3.43-.34.76h2.03Z"/><path class="cls-4" d="m23.94,129.97v-3.71h.39c.09,0,.15.05.17.14l.05.38c.14-.17.29-.31.46-.41s.37-.16.59-.16c.25,0,.45.07.61.21s.27.33.34.56c.05-.13.12-.25.21-.35s.18-.18.28-.24.22-.11.34-.14.24-.04.36-.04c.2,0,.37.03.52.09.15.06.28.15.39.27.11.12.19.27.24.44.06.17.08.37.08.6v2.36h-.66v-2.36c0-.29-.06-.51-.19-.66-.13-.15-.31-.23-.55-.23-.11,0-.21.02-.31.06-.1.04-.18.09-.25.17s-.13.17-.17.28c-.04.11-.06.24-.06.39v2.36h-.66v-2.36c0-.3-.06-.52-.18-.67-.12-.15-.29-.22-.52-.22-.16,0-.31.04-.45.13s-.26.21-.38.35v2.77h-.66Z"/><path class="cls-4" d="m32.9,129.45c-.08.1-.18.18-.29.25-.11.07-.23.13-.36.18-.13.05-.26.08-.4.1s-.27.03-.41.03c-.26,0-.49-.04-.71-.13s-.4-.21-.56-.38c-.16-.17-.28-.37-.37-.62-.09-.25-.13-.53-.13-.85,0-.26.04-.5.12-.73.08-.22.19-.42.34-.58.15-.16.33-.29.55-.39.22-.09.46-.14.73-.14.22,0,.43.04.62.11s.35.18.49.32c.14.14.25.31.32.52.08.21.12.44.12.71,0,.1-.01.17-.03.21-.02.03-.06.05-.12.05h-2.48c0,.23.04.44.1.61s.14.32.24.43.22.2.37.26c.14.06.3.09.48.09.16,0,.3-.02.42-.06s.22-.08.31-.12c.09-.04.16-.09.21-.12.06-.04.11-.06.15-.06.05,0,.1.02.12.06l.18.24Zm-.53-1.74c0-.15-.02-.29-.06-.42-.04-.13-.11-.23-.19-.33-.08-.09-.18-.16-.3-.21-.12-.05-.25-.07-.4-.07-.31,0-.56.09-.74.27-.18.18-.3.43-.34.76h2.03Z"/><path class="cls-4" d="m34.3,126.8c.08-.09.17-.17.26-.24.09-.07.19-.14.29-.19.1-.05.21-.09.32-.12.11-.03.24-.04.37-.04.2,0,.38.03.54.1.16.07.28.16.39.29.1.12.18.27.24.44.05.17.08.37.08.58v2.36h-.66v-2.36c0-.28-.06-.5-.19-.65-.13-.16-.32-.23-.58-.23-.19,0-.37.05-.54.14s-.32.22-.46.38v2.73h-.66v-3.71h.39c.09,0,.15.05.17.14l.05.4Z"/><path class="cls-4" d="m38.8,130.03c-.29,0-.52-.08-.68-.25-.16-.16-.24-.4-.24-.71v-2.27h-.45s-.07-.01-.1-.03c-.03-.02-.04-.06-.04-.11v-.26l.61-.08.15-1.15s.02-.07.05-.09c.03-.02.06-.03.1-.03h.33v1.28h1.07v.47h-1.07v2.23c0,.16.04.27.11.35.08.08.17.11.29.11.07,0,.13,0,.18-.03s.09-.04.13-.06c.04-.02.07-.04.09-.06.03-.02.05-.03.07-.03.03,0,.06.02.09.06l.19.31c-.11.1-.25.19-.41.25-.16.06-.32.09-.49.09Z"/><path class="cls-5" d="m14.54,110.15c0,.51-.05.96-.16,1.34-.11.38-.26.69-.46.94-.19.25-.42.43-.69.55-.26.12-.55.18-.86.18s-.59-.06-.85-.18c-.26-.12-.49-.3-.68-.55-.19-.25-.34-.56-.45-.94-.11-.38-.16-.82-.16-1.34s.05-.96.16-1.34c.11-.38.26-.69.45-.94.19-.25.42-.43.68-.55.26-.12.55-.18.85-.18s.59.06.86.18c.26.12.49.31.69.55.19.25.35.56.46.94.11.38.16.82.16,1.34Zm-1.04,0c0-.43-.03-.78-.09-1.06-.06-.28-.15-.5-.25-.67-.1-.17-.22-.28-.36-.35-.14-.07-.28-.1-.42-.1s-.28.03-.42.1c-.13.07-.25.18-.36.35-.1.17-.19.39-.25.67-.06.28-.09.63-.09,1.06s.03.78.09,1.06c.06.28.14.5.25.67s.22.28.36.35.27.1.42.1.29-.03.42-.1c.14-.07.26-.18.36-.35s.19-.39.25-.67c.06-.28.09-.63.09-1.06Z"/><path class="cls-5" d="m15.02,112.54c0-.08.02-.16.05-.24.03-.08.07-.14.13-.2.05-.05.12-.1.2-.13.08-.03.16-.05.24-.05s.17.02.24.05.14.08.2.13.1.12.13.2c.03.08.05.16.05.24s-.02.17-.05.24c-.03.07-.08.14-.13.19-.06.05-.12.1-.2.13s-.16.05-.24.05-.17-.02-.24-.05c-.08-.03-.14-.07-.2-.13-.05-.05-.1-.12-.13-.19-.03-.07-.05-.16-.05-.24Z"/><path class="cls-5" d="m21.04,110.88v.58c0,.05-.02.1-.05.14-.04.04-.09.06-.15.06h-.54v1.44h-.88v-1.44h-2.48c-.07,0-.13-.02-.18-.06s-.08-.09-.1-.16l-.11-.51,2.79-3.73h.95v3.67h.74Zm-1.62,0v-1.93c0-.18.01-.38.04-.6l-1.83,2.53h1.79Z"/><path class="cls-5" d="m23.3,109.35l-.2.25c.11-.06.24-.1.37-.13.13-.03.27-.05.43-.05.22,0,.44.04.65.11s.4.18.56.33.29.33.39.55c.1.22.15.48.15.77,0,.27-.05.53-.15.77-.1.24-.24.45-.42.63-.18.18-.4.32-.66.42-.26.1-.54.16-.85.16s-.6-.05-.85-.15c-.25-.1-.46-.24-.64-.42s-.31-.4-.41-.65c-.09-.25-.14-.54-.14-.84,0-.28.06-.56.17-.85s.29-.59.52-.91l1.4-1.89c.05-.06.12-.12.21-.17.09-.05.2-.07.32-.07h.9l-1.75,2.14Zm.23,2.99c.16,0,.31-.03.44-.08.13-.05.25-.13.35-.23.1-.1.17-.21.23-.34.05-.13.08-.28.08-.43,0-.17-.03-.32-.08-.45-.05-.13-.12-.25-.22-.34s-.21-.17-.34-.21c-.13-.05-.28-.07-.44-.07s-.31.03-.44.08c-.13.05-.24.13-.33.23-.09.1-.16.21-.22.34-.05.13-.08.27-.08.43,0,.16.02.31.07.45s.11.25.2.34c.09.09.2.17.33.22.13.05.28.08.45.08Z"/><path class="cls-4" d="m40.08,157.9c0,.39-.06.75-.19,1.08-.12.33-.3.61-.53.85-.23.24-.5.42-.82.55-.32.13-.67.2-1.06.2s-.74-.07-1.06-.2c-.32-.13-.59-.31-.82-.55-.23-.24-.4-.52-.53-.85-.12-.33-.19-.69-.19-1.08s.06-.75.19-1.08c.12-.33.3-.61.53-.85.23-.24.5-.42.82-.56.32-.13.67-.2,1.06-.2s.74.07,1.06.2c.32.13.59.32.82.56.23.24.4.52.53.85.12.33.19.69.19,1.08Zm-.73,0c0-.32-.04-.61-.13-.87-.09-.26-.21-.47-.37-.65-.16-.18-.36-.31-.59-.41-.23-.1-.49-.14-.77-.14s-.54.05-.77.14c-.23.1-.43.23-.59.41-.16.18-.29.39-.38.65-.09.26-.13.55-.13.87s.04.61.13.87c.09.26.21.47.38.65.16.18.36.31.59.41.23.09.48.14.77.14s.54-.05.77-.14c.23-.09.43-.23.59-.41.16-.18.29-.39.37-.65.09-.26.13-.54.13-.87Z"/><path class="cls-4" d="m41.42,157.56c.12-.25.26-.45.43-.6.17-.14.38-.21.63-.21.08,0,.15,0,.23.03.07.02.14.04.19.08l-.05.49c-.01.06-.05.09-.11.09-.03,0-.08,0-.15-.02-.07-.01-.14-.02-.22-.02-.12,0-.22.02-.31.05-.09.03-.17.09-.25.15-.07.07-.14.15-.19.25-.06.1-.11.21-.16.34v2.34h-.66v-3.71h.37c.07,0,.12.01.15.04s.05.07.05.14l.04.56Z"/><path class="cls-4" d="m46.33,155.13v5.4h-.39c-.09,0-.15-.05-.18-.14l-.06-.45c-.16.19-.34.34-.54.46-.2.12-.44.18-.7.18-.21,0-.41-.04-.58-.12s-.32-.2-.44-.36c-.12-.16-.22-.36-.28-.59-.07-.24-.1-.51-.1-.82,0-.27.04-.53.11-.76.07-.24.18-.44.32-.61.14-.17.3-.31.5-.41.2-.1.42-.15.67-.15.23,0,.42.04.58.12.16.08.31.18.43.32v-2.06h.65Zm-.65,2.57c-.12-.16-.25-.28-.4-.34-.14-.07-.3-.1-.48-.1-.34,0-.61.12-.8.37s-.28.6-.28,1.06c0,.24.02.45.06.62.04.17.1.31.18.43s.18.19.3.24c.12.05.25.08.4.08.21,0,.4-.05.56-.15.16-.1.31-.24.44-.41v-1.79Z"/><path class="cls-4" d="m50.31,160c-.08.1-.18.18-.29.25-.11.07-.23.13-.36.18-.13.05-.26.08-.4.1s-.27.03-.41.03c-.26,0-.49-.04-.71-.13s-.4-.21-.56-.38c-.16-.17-.28-.37-.37-.62-.09-.25-.13-.53-.13-.85,0-.26.04-.5.12-.73.08-.22.19-.42.34-.58.15-.16.33-.29.55-.39.22-.09.46-.14.73-.14.22,0,.43.04.62.11s.35.18.49.32c.14.14.25.31.32.52.08.21.12.44.12.71,0,.1-.01.17-.03.21-.02.03-.06.05-.12.05h-2.48c0,.23.04.44.1.61s.14.32.24.43.22.2.37.26c.14.06.3.09.48.09.16,0,.3-.02.42-.06s.22-.08.31-.12c.09-.04.16-.09.21-.12.06-.04.11-.06.15-.06.05,0,.1.02.12.06l.18.24Zm-.53-1.74c0-.15-.02-.29-.06-.42-.04-.13-.11-.23-.19-.33-.08-.09-.18-.16-.3-.21-.12-.05-.25-.07-.4-.07-.31,0-.56.09-.74.27-.18.18-.3.43-.34.76h2.03Z"/><path class="cls-4" d="m51.71,157.56c.12-.25.26-.45.43-.6.17-.14.38-.21.63-.21.08,0,.15,0,.23.03.07.02.14.04.19.08l-.05.49c-.01.06-.05.09-.11.09-.03,0-.08,0-.15-.02-.07-.01-.14-.02-.22-.02-.12,0-.22.02-.31.05-.09.03-.17.09-.25.15-.07.07-.14.15-.19.25-.06.1-.11.21-.16.34v2.34h-.66v-3.71h.37c.07,0,.12.01.15.04s.05.07.05.14l.04.56Z"/><path class="cls-4" d="m55.26,157.34c.21-.2.43-.35.66-.44.24-.1.5-.15.79-.15.21,0,.39.03.55.1.16.07.3.16.41.29.11.12.19.27.25.44.06.17.08.36.08.57v2.37h-.29c-.06,0-.11-.01-.15-.03s-.06-.06-.08-.12l-.07-.35c-.1.09-.19.17-.29.24-.09.07-.19.13-.29.18s-.21.08-.33.11c-.12.03-.24.04-.39.04s-.28-.02-.41-.06c-.13-.04-.24-.1-.33-.18-.09-.08-.17-.18-.22-.31-.05-.12-.08-.27-.08-.44,0-.15.04-.29.12-.42.08-.14.21-.26.39-.36.18-.1.42-.19.71-.26.29-.07.65-.11,1.07-.12v-.29c0-.29-.06-.51-.19-.65-.12-.15-.31-.22-.55-.22-.16,0-.3.02-.41.06-.11.04-.2.09-.28.14-.08.05-.15.1-.21.14-.06.04-.11.06-.17.06-.04,0-.08-.01-.11-.03-.03-.02-.06-.05-.08-.09l-.12-.21Zm2.11,1.52c-.3,0-.56.03-.77.07-.21.04-.38.09-.52.15s-.23.13-.29.22c-.06.08-.09.18-.09.28s.02.18.05.25.08.13.13.17.12.08.19.1c.07.02.15.03.24.03.11,0,.22-.01.32-.03.1-.02.18-.06.27-.1.08-.04.16-.1.24-.16.08-.06.15-.13.23-.21v-.77Z"/><path class="cls-4" d="m59.54,157.35c.08-.09.17-.17.26-.24.09-.07.19-.14.29-.19.1-.05.21-.09.32-.12.11-.03.24-.04.37-.04.2,0,.38.03.54.1.16.07.28.16.39.29.1.12.18.27.24.44.05.17.08.37.08.58v2.36h-.66v-2.36c0-.28-.06-.5-.19-.65-.13-.16-.32-.23-.58-.23-.19,0-.37.05-.54.14s-.32.22-.46.38v2.73h-.66v-3.71h.39c.09,0,.15.05.17.14l.05.4Z"/><path class="cls-4" d="m66.01,155.13v5.4h-.39c-.09,0-.15-.05-.18-.14l-.06-.45c-.16.19-.34.34-.54.46-.2.12-.44.18-.7.18-.21,0-.41-.04-.58-.12s-.32-.2-.44-.36c-.12-.16-.22-.36-.28-.59-.07-.24-.1-.51-.1-.82,0-.27.04-.53.11-.76.07-.24.18-.44.32-.61.14-.17.3-.31.5-.41.2-.1.42-.15.67-.15.23,0,.42.04.58.12.16.08.31.18.43.32v-2.06h.65Zm-.65,2.57c-.12-.16-.25-.28-.4-.34-.14-.07-.3-.1-.48-.1-.34,0-.61.12-.8.37s-.28.6-.28,1.06c0,.24.02.45.06.62.04.17.1.31.18.43s.18.19.3.24c.12.05.25.08.4.08.21,0,.4-.05.56-.15.16-.1.31-.24.44-.41v-1.79Z"/><path class="cls-4" d="m71.62,156.09s-.05.06-.07.08c-.03.02-.06.03-.09.03-.04,0-.09-.02-.15-.06-.06-.04-.13-.09-.21-.14s-.19-.1-.3-.14c-.12-.04-.26-.06-.43-.06-.16,0-.3.02-.42.06-.12.04-.22.1-.3.17-.08.07-.14.16-.19.26-.04.1-.06.21-.06.32,0,.15.04.27.11.36.07.1.17.18.29.25s.25.13.4.18.3.1.46.16c.16.05.31.11.46.18.15.07.28.15.4.26s.21.23.29.38c.07.15.11.33.11.55,0,.23-.04.44-.12.65-.08.2-.19.38-.34.53s-.33.27-.55.35c-.22.09-.47.13-.75.13-.34,0-.65-.06-.93-.19-.28-.12-.52-.29-.71-.5l.21-.34s.04-.05.07-.07.06-.03.09-.03c.03,0,.07.01.11.04.04.03.09.06.14.1s.11.08.18.13.14.09.23.13c.08.04.18.07.29.1.11.03.23.04.36.04.17,0,.32-.02.45-.07.13-.05.24-.11.34-.2.09-.08.16-.19.21-.3.05-.12.07-.25.07-.39,0-.16-.04-.29-.11-.39-.07-.1-.17-.19-.28-.25-.12-.07-.25-.13-.4-.17s-.31-.1-.46-.15c-.16-.05-.31-.11-.46-.17-.15-.07-.29-.15-.4-.26-.12-.1-.21-.24-.28-.39-.07-.16-.11-.35-.11-.58,0-.19.04-.37.11-.54s.18-.33.32-.46.31-.24.51-.32.43-.12.69-.12c.29,0,.56.05.8.14s.45.23.64.4l-.17.34Z"/><path class="cls-4" d="m75.68,160c-.08.1-.18.18-.29.25-.11.07-.23.13-.36.18-.13.05-.26.08-.4.1s-.27.03-.41.03c-.26,0-.49-.04-.71-.13s-.4-.21-.56-.38c-.16-.17-.28-.37-.37-.62-.09-.25-.13-.53-.13-.85,0-.26.04-.5.12-.73.08-.22.19-.42.34-.58.15-.16.33-.29.55-.39.22-.09.46-.14.73-.14.22,0,.43.04.62.11s.35.18.49.32c.14.14.25.31.32.52.08.21.12.44.12.71,0,.1-.01.17-.03.21s-.06.05-.12.05h-2.48c0,.23.04.44.1.61s.14.32.24.43.22.2.37.26c.14.06.3.09.48.09.16,0,.3-.02.42-.06s.22-.08.31-.12c.09-.04.16-.09.21-.12.06-.04.11-.06.15-.06.05,0,.09.02.12.06l.18.24Zm-.53-1.74c0-.15-.02-.29-.06-.42-.04-.13-.11-.23-.19-.33-.08-.09-.18-.16-.3-.21-.12-.05-.25-.07-.4-.07-.31,0-.56.09-.74.27-.18.18-.3.43-.34.76h2.03Z"/><path class="cls-4" d="m79.05,157.47s-.04.05-.06.06c-.02.01-.05.02-.08.02-.04,0-.08-.02-.12-.05s-.1-.06-.16-.1c-.07-.04-.14-.07-.24-.1-.09-.03-.21-.05-.35-.05-.18,0-.34.03-.48.1s-.26.16-.35.28c-.09.12-.17.27-.21.44s-.07.37-.07.58.03.42.08.6c.05.17.12.32.22.44.09.12.21.21.34.27.13.06.28.09.45.09s.29-.02.39-.06c.1-.04.19-.08.25-.13.07-.05.12-.09.17-.13.05-.04.09-.06.13-.06.05,0,.1.02.12.06l.18.24c-.08.1-.17.19-.28.26s-.21.13-.33.18-.24.08-.37.1c-.13.02-.26.03-.4.03-.23,0-.45-.04-.65-.13-.2-.09-.37-.21-.52-.37-.15-.16-.26-.36-.35-.6-.08-.24-.12-.51-.12-.81,0-.28.04-.53.12-.77s.19-.44.34-.61c.15-.17.33-.3.55-.4.22-.1.46-.14.75-.14.26,0,.49.04.69.13.2.08.38.2.53.36l-.17.23Z"/><path class="cls-4" d="m82.95,156.81v3.71h-.39c-.09,0-.15-.05-.18-.14l-.05-.4c-.16.18-.34.32-.54.43-.2.11-.43.16-.69.16-.2,0-.38-.03-.54-.1s-.29-.16-.39-.28-.18-.27-.24-.44-.08-.36-.08-.57v-2.37h.65v2.37c0,.28.06.5.19.65.13.15.32.23.59.23.19,0,.37-.05.54-.14.17-.09.32-.22.46-.38v-2.73h.65Z"/><path class="cls-4" d="m84.53,157.56c.12-.25.26-.45.43-.6.17-.14.38-.21.63-.21.08,0,.15,0,.23.03.07.02.14.04.19.08l-.05.49c-.02.06-.05.09-.11.09-.03,0-.08,0-.15-.02-.07-.01-.14-.02-.22-.02-.12,0-.22.02-.31.05-.09.03-.17.09-.25.15-.07.07-.14.15-.19.25-.06.1-.11.21-.16.34v2.34h-.66v-3.71h.37c.07,0,.12.01.15.04s.05.07.05.14l.04.56Z"/><path class="cls-4" d="m87.34,155.65c0,.06-.01.12-.04.18-.03.05-.06.1-.1.15s-.09.08-.15.1c-.06.02-.12.04-.18.04s-.12-.01-.18-.04c-.05-.02-.1-.06-.14-.1-.04-.04-.07-.09-.1-.15-.02-.05-.04-.11-.04-.18s.01-.12.04-.18c.02-.06.06-.11.1-.15s.09-.08.14-.1.11-.04.18-.04.12.01.18.04c.06.02.11.06.15.1.04.04.08.09.1.15.03.06.04.12.04.18Zm-.14,1.16v3.71h-.65v-3.71h.65Z"/><path class="cls-4" d="m89.34,160.58c-.29,0-.52-.08-.68-.25s-.24-.4-.24-.71v-2.27h-.45s-.07-.01-.1-.03-.04-.06-.04-.11v-.26l.61-.08.15-1.15s.02-.07.05-.09c.03-.02.06-.03.1-.03h.33v1.28h1.07v.47h-1.07v2.23c0,.16.04.27.11.35.08.08.17.11.29.11.07,0,.13,0,.18-.03s.09-.04.13-.06c.04-.02.07-.04.09-.06s.05-.03.07-.03c.03,0,.07.02.09.06l.19.31c-.11.1-.25.19-.41.25-.16.06-.32.09-.49.09Z"/><path class="cls-4" d="m93.96,156.81l-2.07,4.81s-.05.09-.08.12c-.03.03-.08.04-.15.04h-.48l.68-1.47-1.53-3.5h.56c.06,0,.1.01.13.04.03.03.06.06.07.09l.99,2.34c.04.1.07.21.1.32.03-.11.07-.22.11-.33l.96-2.33s.04-.07.08-.1c.03-.03.07-.04.12-.04h.52Z"/><path class="cls-5" d="m58.85,149.24c0,.51-.05.96-.16,1.34-.11.38-.26.69-.46.94-.19.25-.42.43-.69.55-.26.12-.55.18-.86.18s-.59-.06-.85-.18c-.26-.12-.49-.3-.68-.55-.19-.25-.34-.56-.45-.94-.11-.38-.16-.82-.16-1.34s.05-.96.16-1.34c.11-.38.26-.69.45-.94.19-.25.42-.43.68-.55.26-.12.55-.18.85-.18s.59.06.86.18c.26.12.49.31.69.55.19.25.35.56.46.94.11.38.16.82.16,1.34Zm-1.04,0c0-.43-.03-.78-.09-1.06-.06-.28-.15-.5-.25-.67-.1-.17-.22-.28-.36-.35-.14-.07-.28-.1-.42-.1s-.28.03-.42.1c-.13.07-.25.18-.36.35-.1.17-.19.39-.25.67-.06.28-.09.63-.09,1.06s.03.78.09,1.06c.06.28.14.5.25.67s.22.28.36.35.27.1.42.1.29-.03.42-.1c.14-.07.26-.18.36-.35s.19-.39.25-.67c.06-.28.09-.63.09-1.06Z"/><path class="cls-5" d="m59.33,151.63c0-.08.02-.16.05-.24.03-.08.07-.14.13-.2.05-.05.12-.1.2-.13.08-.03.16-.05.24-.05s.17.02.24.05.14.08.2.13.1.12.13.2c.03.08.05.16.05.24s-.02.17-.05.24c-.03.07-.08.14-.13.19-.06.05-.12.1-.2.13s-.16.05-.24.05-.17-.02-.24-.05c-.08-.03-.14-.07-.2-.13-.05-.05-.1-.12-.13-.19-.03-.07-.05-.16-.05-.24Z"/><path class="cls-5" d="m64.19,149.11c.36.12.62.3.79.54.17.24.26.53.26.88,0,.26-.05.5-.15.71s-.24.39-.42.54c-.18.15-.39.26-.65.35-.25.08-.53.12-.83.12s-.58-.04-.83-.12c-.25-.08-.47-.2-.65-.35-.18-.15-.32-.33-.42-.54-.1-.21-.15-.45-.15-.71,0-.35.09-.64.26-.88s.44-.42.79-.54c-.29-.12-.5-.29-.64-.51-.14-.22-.21-.49-.21-.79,0-.22.05-.43.14-.62.09-.19.22-.36.38-.5.16-.14.36-.25.58-.33.23-.08.48-.12.75-.12s.52.04.75.12c.23.08.42.19.58.33.16.14.29.31.38.5.09.19.14.4.14.62,0,.31-.07.57-.21.79-.14.22-.36.39-.64.51Zm-.99,2.35c.17,0,.31-.02.44-.07s.23-.11.32-.2c.09-.08.15-.18.19-.3s.07-.24.07-.38c0-.32-.09-.57-.27-.73-.18-.17-.43-.25-.74-.25s-.56.08-.74.25c-.18.17-.27.41-.27.73,0,.14.02.26.07.38.04.12.11.22.19.3s.19.15.32.2c.12.05.27.07.44.07Zm0-4.47c-.15,0-.28.02-.39.07s-.2.11-.27.19-.12.17-.16.27c-.03.1-.05.21-.05.32s.01.23.04.34c.03.11.08.21.14.29.07.09.16.15.27.21.11.05.25.08.41.08s.3-.03.41-.08c.11-.05.2-.12.27-.21.07-.09.12-.18.14-.29.03-.11.04-.22.04-.34s-.02-.22-.05-.32c-.04-.1-.09-.19-.16-.27-.07-.08-.16-.14-.27-.19s-.24-.07-.39-.07Z"/><path class="cls-5" d="m70,149.24c0,.51-.05.96-.16,1.34-.11.38-.26.69-.46.94-.19.25-.42.43-.69.55-.26.12-.55.18-.86.18s-.59-.06-.85-.18c-.26-.12-.49-.3-.68-.55-.19-.25-.34-.56-.45-.94-.11-.38-.16-.82-.16-1.34s.05-.96.16-1.34c.11-.38.26-.69.45-.94.19-.25.42-.43.68-.55.26-.12.55-.18.85-.18s.59.06.86.18c.26.12.49.31.69.55.19.25.35.56.46.94.11.38.16.82.16,1.34Zm-1.04,0c0-.43-.03-.78-.09-1.06-.06-.28-.15-.5-.25-.67-.1-.17-.22-.28-.36-.35-.14-.07-.28-.1-.42-.1s-.28.03-.42.1c-.13.07-.25.18-.36.35-.1.17-.19.39-.25.67-.06.28-.09.63-.09,1.06s.03.78.09,1.06c.06.28.14.5.25.67s.22.28.36.35.27.1.42.1.29-.03.42-.1c.14-.07.26-.18.36-.35s.19-.39.25-.67c.06-.28.09-.63.09-1.06Z"/><path class="cls-4" d="m104.68,156.81v1.84h2.16v.58h-2.16v2.26h-.71v-5.25h3.24v.58h-2.52Z"/><path class="cls-4" d="m110.67,157.77v3.71h-.39c-.09,0-.15-.05-.18-.14l-.05-.4c-.16.18-.34.32-.54.43-.2.11-.43.16-.69.16-.2,0-.38-.03-.54-.1s-.29-.16-.39-.28-.18-.27-.24-.44-.08-.36-.08-.57v-2.37h.65v2.37c0,.28.06.5.19.65.13.15.32.23.59.23.19,0,.37-.05.54-.14.17-.09.32-.22.46-.38v-2.73h.65Z"/><path class="cls-4" d="m112.25,158.31c.08-.09.17-.17.26-.24s.19-.14.29-.19c.1-.05.21-.09.32-.12.11-.03.24-.04.37-.04.2,0,.38.03.54.1.16.07.28.16.39.29.1.12.18.27.24.44.05.17.08.37.08.58v2.36h-.66v-2.36c0-.28-.06-.5-.19-.65s-.32-.23-.58-.23c-.19,0-.37.05-.54.14-.17.09-.32.22-.46.38v2.73h-.66v-3.71h.39c.09,0,.15.05.17.14l.05.4Z"/><path class="cls-4" d="m118.72,156.09v5.4h-.39c-.09,0-.15-.05-.18-.14l-.06-.45c-.16.19-.34.34-.54.46-.2.12-.44.18-.7.18-.21,0-.41-.04-.58-.12s-.32-.2-.44-.36c-.12-.16-.22-.36-.28-.59s-.1-.51-.1-.82c0-.27.04-.53.11-.76.07-.24.18-.44.31-.61.14-.17.3-.31.5-.41.2-.1.42-.15.67-.15.23,0,.42.04.58.12.16.08.31.18.43.32v-2.06h.65Zm-.65,2.57c-.12-.16-.25-.28-.4-.34-.14-.07-.3-.1-.48-.1-.35,0-.61.12-.8.37-.19.25-.28.6-.28,1.06,0,.24.02.45.06.62.04.17.1.31.18.43.08.11.18.19.3.24.12.05.25.08.4.08.21,0,.4-.05.56-.15s.31-.24.44-.41v-1.79Z"/><path class="cls-4" d="m119.6,158.3c.21-.2.43-.35.66-.44.24-.1.5-.15.79-.15.21,0,.39.03.55.1.16.07.3.16.41.29.11.12.19.27.25.44.06.17.08.36.08.57v2.37h-.29c-.06,0-.11-.01-.15-.03s-.06-.06-.08-.12l-.07-.35c-.1.09-.19.17-.29.24-.09.07-.19.13-.29.18s-.21.08-.33.11c-.12.03-.24.04-.39.04s-.28-.02-.41-.06c-.13-.04-.24-.1-.33-.18-.09-.08-.17-.18-.22-.31-.05-.12-.08-.27-.08-.44,0-.15.04-.29.12-.42.08-.14.21-.26.39-.36s.42-.19.71-.26c.29-.07.65-.11,1.07-.12v-.29c0-.29-.06-.51-.19-.65-.12-.15-.31-.22-.55-.22-.16,0-.3.02-.4.06-.11.04-.2.09-.28.14s-.15.1-.21.14c-.06.04-.11.06-.17.06-.04,0-.08-.01-.11-.03s-.06-.05-.08-.09l-.12-.21Zm2.11,1.52c-.3,0-.56.03-.77.07-.21.04-.38.09-.52.15-.13.06-.23.13-.29.22-.06.08-.09.18-.09.28s.02.18.05.25.07.13.13.17.12.08.19.1c.07.02.16.03.24.03.12,0,.22-.01.32-.03.09-.02.18-.06.27-.1.08-.04.17-.1.24-.16.08-.06.15-.13.23-.21v-.77Z"/><path class="cls-4" d="m123.26,161.49v-3.71h.39c.09,0,.15.05.17.14l.05.38c.14-.17.29-.31.46-.41s.37-.16.59-.16c.25,0,.45.07.61.21s.27.33.33.56c.05-.13.12-.25.21-.35s.18-.18.28-.24.22-.11.33-.14.24-.04.36-.04c.2,0,.37.03.52.09s.28.15.39.27c.11.12.19.27.24.44.06.17.08.37.08.6v2.36h-.66v-2.36c0-.29-.06-.51-.19-.66-.13-.15-.31-.23-.55-.23-.11,0-.21.02-.31.06-.1.04-.18.09-.25.17s-.13.17-.17.28c-.04.11-.06.24-.06.39v2.36h-.66v-2.36c0-.3-.06-.52-.18-.67-.12-.15-.29-.22-.52-.22-.16,0-.31.04-.45.13s-.26.21-.38.35v2.77h-.66Z"/><path class="cls-4" d="m132.23,160.97c-.08.1-.18.18-.29.25s-.23.13-.36.18c-.13.05-.26.08-.4.1s-.27.03-.41.03c-.26,0-.49-.04-.71-.13s-.4-.21-.56-.38c-.16-.17-.28-.37-.37-.62-.09-.25-.13-.53-.13-.85,0-.26.04-.5.12-.73.08-.22.19-.42.34-.58.15-.16.33-.29.55-.39.22-.09.46-.14.73-.14.22,0,.43.04.62.11s.35.18.49.32c.14.14.25.31.32.52.08.21.12.44.12.71,0,.1-.01.17-.03.21-.02.03-.06.05-.12.05h-2.48c0,.23.04.44.1.61s.14.32.24.43.23.2.37.26.3.09.48.09c.16,0,.3-.02.42-.06s.22-.08.31-.12c.09-.04.16-.09.21-.12.06-.04.11-.06.15-.06.05,0,.1.02.12.06l.18.24Zm-.53-1.74c0-.15-.02-.29-.06-.42s-.1-.23-.19-.33-.18-.16-.3-.21c-.12-.05-.25-.07-.4-.07-.31,0-.56.09-.74.27s-.3.43-.34.76h2.03Z"/><path class="cls-4" d="m133.63,158.31c.08-.09.17-.17.26-.24s.19-.14.29-.19c.1-.05.21-.09.32-.12.11-.03.24-.04.37-.04.2,0,.38.03.54.1.16.07.28.16.39.29.1.12.18.27.24.44.05.17.08.37.08.58v2.36h-.66v-2.36c0-.28-.06-.5-.19-.65s-.32-.23-.58-.23c-.19,0-.37.05-.54.14-.17.09-.32.22-.46.38v2.73h-.66v-3.71h.39c.09,0,.15.05.17.14l.05.4Z"/><path class="cls-4" d="m138.13,161.54c-.29,0-.52-.08-.68-.25-.16-.16-.24-.4-.24-.71v-2.27h-.45s-.07-.01-.1-.03c-.03-.02-.04-.06-.04-.11v-.26l.61-.08.15-1.15s.02-.07.05-.09.06-.03.1-.03h.33v1.28h1.07v.47h-1.07v2.23c0,.16.04.27.11.35s.17.11.29.11c.07,0,.13,0,.18-.03s.09-.04.13-.06c.04-.02.07-.04.09-.06.03-.02.05-.03.07-.03.03,0,.06.02.09.06l.19.31c-.11.1-.25.19-.41.25s-.32.09-.49.09Z"/><path class="cls-4" d="m139.45,158.3c.21-.2.43-.35.66-.44.24-.1.5-.15.79-.15.21,0,.39.03.55.1.16.07.3.16.41.29.11.12.19.27.25.44.06.17.08.36.08.57v2.37h-.29c-.06,0-.11-.01-.15-.03s-.06-.06-.08-.12l-.07-.35c-.1.09-.19.17-.29.24-.09.07-.19.13-.29.18s-.21.08-.33.11c-.12.03-.24.04-.39.04s-.28-.02-.41-.06c-.13-.04-.24-.1-.33-.18-.09-.08-.17-.18-.22-.31-.05-.12-.08-.27-.08-.44,0-.15.04-.29.12-.42.08-.14.21-.26.39-.36s.42-.19.71-.26c.29-.07.65-.11,1.07-.12v-.29c0-.29-.06-.51-.19-.65-.12-.15-.31-.22-.55-.22-.16,0-.3.02-.4.06-.11.04-.2.09-.28.14s-.15.1-.21.14c-.06.04-.11.06-.17.06-.04,0-.08-.01-.11-.03s-.06-.05-.08-.09l-.12-.21Zm2.11,1.52c-.3,0-.56.03-.77.07-.21.04-.38.09-.52.15-.13.06-.23.13-.29.22-.06.08-.09.18-.09.28s.02.18.05.25.07.13.13.17.12.08.19.1c.07.02.16.03.24.03.12,0,.22-.01.32-.03.09-.02.18-.06.27-.1.08-.04.17-.1.24-.16.08-.06.15-.13.23-.21v-.77Z"/><path class="cls-4" d="m143.79,156.09v5.4h-.65v-5.4h.65Z"/><path class="cls-4" d="m118.56,169.44h-.63c-.13,0-.23-.05-.29-.15l-1.36-1.88c-.04-.06-.09-.1-.13-.13s-.12-.04-.22-.04h-.54v2.19h-.71v-5.25h1.48c.33,0,.62.03.86.1.24.07.44.16.6.29s.27.28.35.46.11.38.11.6c0,.19-.03.36-.09.52-.06.16-.14.31-.25.43-.11.13-.25.24-.41.33-.16.09-.34.16-.54.21.09.05.17.13.23.22l1.53,2.08Zm-2.43-2.71c.21,0,.39-.03.54-.08s.29-.12.4-.21c.11-.09.19-.2.24-.33.05-.13.08-.27.08-.42,0-.31-.1-.55-.31-.71-.21-.16-.51-.24-.92-.24h-.78v1.98h.75Z"/><path class="cls-4" d="m119.83,164.56c0,.06-.01.12-.04.18-.03.05-.06.1-.1.15s-.09.08-.15.1c-.06.02-.12.04-.18.04s-.12-.01-.18-.04c-.05-.02-.1-.06-.14-.1-.04-.04-.07-.09-.1-.15-.02-.05-.04-.11-.04-.18s.01-.12.04-.18c.02-.06.06-.11.1-.15s.09-.08.14-.1.11-.04.18-.04.12.01.18.04c.06.02.11.06.15.1.04.04.08.09.1.15.03.06.04.12.04.18Zm-.14,1.16v3.71h-.65v-3.71h.65Z"/><path class="cls-4" d="m123.82,165.87v.24c0,.08-.05.13-.15.15l-.42.05c.08.16.12.34.12.54,0,.18-.03.35-.1.49-.07.15-.17.27-.29.38s-.27.19-.44.24-.36.08-.56.08c-.17,0-.34-.02-.49-.06-.08.05-.14.1-.18.16-.04.05-.06.11-.06.17,0,.09.04.15.11.2s.17.08.28.1c.12.02.25.03.4.04s.3.01.46.02.31.03.46.06c.15.03.28.07.4.13.12.06.21.14.28.25.07.11.11.25.11.42,0,.16-.04.31-.12.46-.08.15-.19.28-.34.4-.15.12-.33.21-.55.28-.22.07-.46.1-.73.1s-.51-.03-.71-.08c-.2-.05-.37-.13-.51-.22-.13-.09-.24-.19-.3-.31-.07-.12-.1-.24-.1-.37,0-.18.06-.34.17-.47.11-.13.27-.23.47-.3-.11-.05-.2-.11-.26-.2-.06-.08-.1-.19-.1-.33,0-.05.01-.11.03-.17.02-.06.05-.11.09-.17.04-.06.09-.11.15-.16.06-.05.13-.1.21-.14-.18-.1-.33-.24-.43-.41-.1-.17-.15-.37-.15-.59,0-.18.03-.35.1-.49.07-.15.17-.27.29-.38.12-.1.27-.18.45-.24.17-.06.36-.08.57-.08.16,0,.31.02.45.05.14.03.27.09.38.16h1.01Zm-.66,3.77c0-.09-.03-.16-.08-.22s-.12-.1-.21-.13-.19-.05-.3-.07c-.11-.01-.24-.02-.36-.03-.13,0-.26-.02-.39-.02s-.26-.02-.38-.04c-.14.06-.25.14-.34.24-.09.1-.13.21-.13.34,0,.08.02.16.06.23.04.07.11.13.2.19s.2.09.33.12c.13.03.29.05.47.05s.33-.02.47-.05c.14-.03.26-.08.35-.14.1-.06.17-.13.22-.21.05-.08.08-.17.08-.27Zm-1.18-2.01c.13,0,.25-.02.35-.05s.18-.09.25-.15.12-.14.15-.24.05-.19.05-.3c0-.23-.07-.41-.21-.54s-.34-.2-.6-.2-.47.07-.6.2c-.14.13-.21.31-.21.54,0,.11.02.21.05.3s.09.17.16.24.15.12.25.15.22.05.35.05Z"/><path class="cls-4" d="m125.09,166.22c.16-.17.33-.3.53-.4s.42-.15.67-.15c.2,0,.38.03.54.1.16.07.28.16.39.29.1.12.18.27.24.44.05.17.08.37.08.58v2.36h-.66v-2.36c0-.28-.06-.5-.19-.65s-.32-.23-.58-.23c-.19,0-.37.05-.54.14-.17.09-.32.22-.46.38v2.73h-.66v-5.4h.66v2.18Z"/><path class="cls-4" d="m129.55,169.5c-.29,0-.52-.08-.68-.25-.16-.16-.24-.4-.24-.71v-2.27h-.45s-.07-.01-.1-.03c-.03-.02-.04-.06-.04-.11v-.26l.61-.08.15-1.15s.02-.07.05-.09.06-.03.1-.03h.33v1.28h1.07v.47h-1.07v2.23c0,.16.04.27.11.35s.17.11.29.11c.07,0,.13,0,.18-.03s.09-.04.13-.06c.04-.02.07-.04.09-.06.03-.02.05-.03.07-.03.03,0,.06.02.09.06l.19.31c-.11.1-.25.19-.41.25s-.32.09-.49.09Z"/><path class="cls-4" d="m133.12,166.34c-.03.05-.07.08-.14.08-.04,0-.08-.01-.12-.04-.05-.03-.1-.06-.17-.09-.07-.03-.15-.06-.24-.09-.09-.03-.2-.04-.33-.04-.11,0-.21.01-.3.04-.09.03-.16.07-.23.12-.06.05-.11.11-.14.17-.03.06-.05.13-.05.21,0,.09.03.17.08.24s.13.12.22.16c.09.05.19.09.31.12.11.03.23.07.35.11.12.04.24.08.35.13.12.05.22.11.31.18.09.07.16.16.22.27s.08.23.08.38c0,.17-.03.33-.09.47-.06.15-.15.27-.27.38-.12.11-.27.19-.44.25-.17.06-.37.09-.6.09-.26,0-.49-.04-.7-.13s-.39-.19-.54-.32l.15-.25s.04-.06.07-.07c.03-.02.06-.03.1-.03.04,0,.09.02.14.05.05.03.11.07.18.11.07.04.15.08.25.11s.23.05.37.05c.13,0,.24-.02.33-.05.1-.03.17-.08.24-.13.06-.06.11-.12.14-.19.03-.07.05-.15.05-.23,0-.1-.03-.19-.08-.25-.05-.07-.13-.12-.22-.17-.09-.05-.19-.09-.31-.12-.12-.04-.23-.07-.36-.11s-.24-.08-.36-.13-.22-.11-.31-.19c-.09-.08-.16-.17-.22-.28-.05-.11-.08-.25-.08-.4,0-.14.03-.28.09-.41.06-.13.14-.24.26-.34.11-.1.25-.18.41-.24s.35-.09.56-.09c.24,0,.46.04.66.12.19.08.36.18.5.32l-.15.24Z"/><path class="cls-5" d="m120.8,149.36c0,.51-.05.96-.16,1.34s-.26.69-.46.94c-.19.25-.42.43-.69.55-.26.12-.55.18-.86.18s-.59-.06-.85-.18-.49-.3-.68-.55c-.19-.25-.34-.56-.45-.94s-.16-.82-.16-1.34.05-.96.16-1.34c.11-.38.26-.69.45-.94.19-.25.42-.43.68-.55.26-.12.55-.18.85-.18s.59.06.86.18c.26.12.49.31.69.55.19.25.35.56.46.94.11.38.16.82.16,1.34Zm-1.04,0c0-.43-.03-.78-.09-1.06-.06-.28-.15-.5-.25-.67-.1-.17-.22-.28-.36-.35-.14-.07-.28-.1-.42-.1s-.28.03-.42.1c-.13.07-.25.18-.36.35-.1.17-.19.39-.25.67-.06.28-.09.63-.09,1.06s.03.78.09,1.06c.06.28.14.5.25.67.1.17.22.28.36.35s.27.1.42.1.29-.03.42-.1.26-.18.36-.35c.1-.17.19-.39.25-.67.06-.28.09-.63.09-1.06Z"/><path class="cls-5" d="m121.28,151.75c0-.08.02-.16.05-.24.03-.08.07-.14.13-.2.05-.05.12-.1.19-.13.08-.03.16-.05.24-.05s.17.02.24.05.14.08.2.13.1.12.13.2c.03.08.05.16.05.24s-.02.17-.05.24c-.03.07-.08.14-.13.19-.06.05-.12.1-.2.13s-.16.05-.24.05-.17-.02-.24-.05c-.08-.03-.14-.07-.19-.13s-.1-.12-.13-.19c-.03-.07-.05-.16-.05-.24Z"/><path class="cls-5" d="m124.9,148.55l-.2.25c.11-.06.24-.1.37-.13.13-.03.27-.05.43-.05.22,0,.44.04.65.11.21.07.4.18.56.33.16.15.29.33.39.55.1.22.15.48.15.77,0,.27-.05.53-.15.77-.1.24-.24.45-.42.63s-.4.32-.66.42c-.26.1-.54.16-.85.16s-.6-.05-.85-.15c-.25-.1-.46-.24-.64-.42s-.31-.4-.41-.65c-.09-.25-.14-.54-.14-.84,0-.28.06-.56.17-.85.11-.29.29-.59.52-.91l1.41-1.89c.05-.06.12-.12.21-.17.09-.05.2-.07.32-.07h.9l-1.75,2.14Zm.23,2.99c.16,0,.31-.03.44-.08.13-.05.25-.13.35-.23.1-.1.17-.21.23-.34s.08-.28.08-.43c0-.17-.03-.32-.08-.45s-.12-.25-.22-.34c-.1-.09-.21-.17-.34-.21-.13-.05-.28-.07-.44-.07s-.31.03-.44.08c-.13.05-.24.13-.33.23-.09.1-.16.21-.22.34-.05.13-.08.27-.08.43,0,.16.02.31.07.45.04.13.11.25.2.34.09.09.2.17.33.22.13.05.28.08.45.08Z"/><path class="cls-5" d="m131.95,149.36c0,.51-.05.96-.16,1.34-.11.38-.26.69-.46.94-.19.25-.42.43-.69.55s-.55.18-.86.18-.59-.06-.85-.18c-.26-.12-.49-.3-.68-.55-.19-.25-.34-.56-.45-.94-.11-.38-.16-.82-.16-1.34s.05-.96.16-1.34c.11-.38.26-.69.45-.94.19-.25.42-.43.68-.55.26-.12.55-.18.85-.18s.59.06.86.18c.26.12.49.31.69.55.19.25.35.56.46.94.11.38.16.82.16,1.34Zm-1.04,0c0-.43-.03-.78-.09-1.06-.06-.28-.15-.5-.25-.67-.1-.17-.23-.28-.36-.35-.14-.07-.28-.1-.42-.1s-.28.03-.42.1c-.13.07-.25.18-.36.35-.1.17-.19.39-.25.67-.06.28-.09.63-.09,1.06s.03.78.09,1.06c.06.28.14.5.25.67.1.17.22.28.36.35s.27.1.42.1.29-.03.42-.1c.14-.07.26-.18.36-.35.1-.17.19-.39.25-.67.06-.28.09-.63.09-1.06Z"/><path class="cls-4" d="m159.13,66.21h-.55c-.06,0-.11-.02-.15-.05-.04-.03-.07-.07-.09-.12l-.49-1.27h-2.36l-.49,1.27s-.04.08-.08.12c-.04.03-.09.05-.15.05h-.55l2.1-5.25h.72l2.1,5.25Zm-1.48-1.95l-.82-2.14c-.02-.06-.05-.14-.08-.22s-.05-.17-.08-.27c-.05.2-.1.36-.16.49l-.82,2.13h1.96Z"/><path class="cls-4" d="m160.24,63.03c.16-.18.33-.33.53-.43.2-.11.42-.16.68-.16.22,0,.41.04.59.12.17.08.32.2.45.36.12.16.22.35.28.57.07.23.1.48.1.76,0,.3-.04.57-.11.82s-.18.46-.32.63c-.14.17-.31.31-.5.41-.2.1-.42.15-.67.15s-.45-.05-.62-.14-.31-.22-.44-.39l-.03.34c-.02.09-.08.14-.17.14h-.42v-5.4h.66v2.22Zm0,2.28c.12.16.25.27.39.34s.3.1.47.1c.35,0,.62-.12.8-.37.19-.25.28-.61.28-1.1,0-.45-.08-.79-.25-1-.17-.21-.4-.32-.71-.32-.21,0-.4.05-.56.15-.16.1-.3.24-.44.41v1.8Z"/><path class="cls-4" d="m165.78,63.11c-.03.05-.07.08-.14.08-.04,0-.08-.01-.12-.04-.05-.03-.1-.06-.17-.09-.07-.03-.15-.06-.24-.09-.09-.03-.2-.04-.33-.04-.11,0-.21.01-.3.04-.09.03-.16.07-.23.12-.06.05-.11.11-.14.17-.03.06-.05.13-.05.21,0,.09.03.17.08.24s.13.12.22.16c.09.05.19.09.31.12.11.03.23.07.35.11.12.04.24.08.35.13.12.05.22.11.31.18.09.07.16.16.22.27s.08.23.08.38c0,.17-.03.33-.09.47-.06.15-.15.27-.27.38-.12.11-.27.19-.44.25-.17.06-.37.09-.6.09-.26,0-.49-.04-.7-.13s-.39-.19-.54-.32l.15-.25s.04-.06.07-.07c.03-.02.06-.03.1-.03.04,0,.09.02.14.05.05.03.11.07.18.11.07.04.15.08.25.11s.23.05.37.05c.13,0,.24-.02.33-.05.1-.03.17-.08.24-.13.06-.06.11-.12.14-.19.03-.07.05-.15.05-.23,0-.1-.03-.19-.08-.25-.05-.07-.13-.12-.22-.17-.09-.05-.19-.09-.31-.12-.12-.04-.23-.07-.36-.11s-.24-.08-.36-.13-.22-.11-.31-.19c-.09-.08-.16-.17-.22-.28-.05-.11-.08-.25-.08-.4,0-.14.03-.28.09-.41.06-.13.14-.24.26-.34.11-.1.25-.18.41-.24s.35-.09.56-.09c.24,0,.46.04.66.12.19.08.36.18.5.32l-.15.24Z"/><path class="cls-4" d="m169.74,65.69c-.08.1-.18.18-.29.25-.11.07-.23.13-.36.18-.13.05-.26.08-.4.1s-.27.03-.41.03c-.26,0-.49-.04-.71-.13s-.4-.21-.56-.38c-.16-.17-.28-.37-.37-.62-.09-.25-.13-.53-.13-.85,0-.26.04-.5.12-.73.08-.22.19-.42.34-.58.15-.16.33-.29.55-.39s.46-.14.73-.14c.22,0,.43.04.62.11s.35.18.49.32c.14.14.25.31.32.52.08.21.12.44.12.71,0,.1-.01.17-.03.21s-.06.05-.12.05h-2.48c0,.23.04.44.1.61s.14.32.24.43.22.2.37.26c.14.06.3.09.48.09.16,0,.31-.02.42-.06s.22-.08.31-.12c.09-.04.16-.09.21-.12.06-.04.11-.06.15-.06.05,0,.09.02.12.06l.18.24Zm-.53-1.74c0-.15-.02-.29-.06-.42-.04-.13-.11-.23-.19-.33-.08-.09-.18-.16-.3-.21-.12-.05-.25-.07-.4-.07-.31,0-.56.09-.74.27-.18.18-.3.43-.34.76h2.03Z"/><path class="cls-4" d="m171.14,63.04c.08-.09.17-.17.26-.24s.19-.14.29-.19c.1-.05.21-.09.32-.12.11-.03.24-.04.37-.04.2,0,.38.03.54.1.16.07.28.16.39.29.1.12.18.27.24.44.05.17.08.37.08.58v2.36h-.66v-2.36c0-.28-.06-.5-.19-.65s-.32-.23-.58-.23c-.19,0-.37.05-.54.14-.17.09-.32.22-.46.38v2.73h-.66v-3.71h.39c.09,0,.15.05.17.14l.05.4Z"/><path class="cls-4" d="m177.13,63.16s-.04.05-.06.06c-.02.01-.05.02-.08.02-.04,0-.08-.02-.12-.05s-.1-.06-.16-.1c-.07-.04-.14-.07-.24-.1-.09-.03-.21-.05-.35-.05-.18,0-.34.03-.48.1s-.26.16-.35.28c-.09.12-.17.27-.21.44s-.07.37-.07.58.03.42.08.6c.05.17.12.32.22.44.09.12.21.21.34.27.13.06.28.09.45.09s.29-.02.39-.06c.1-.04.19-.08.25-.13.07-.05.12-.09.17-.13.05-.04.09-.06.13-.06.05,0,.1.02.12.06l.18.24c-.08.1-.17.19-.28.26s-.21.13-.33.18-.24.08-.37.1c-.13.02-.26.03-.4.03-.23,0-.45-.04-.65-.13-.2-.09-.37-.21-.52-.37-.15-.16-.26-.36-.35-.6-.08-.24-.12-.51-.12-.81,0-.28.04-.53.12-.77s.19-.44.34-.61c.15-.17.33-.3.55-.4.22-.1.46-.14.75-.14.26,0,.49.04.69.13.2.08.38.2.53.36l-.17.23Z"/><path class="cls-4" d="m180.93,65.69c-.08.1-.18.18-.29.25-.11.07-.23.13-.36.18-.13.05-.26.08-.4.1s-.27.03-.41.03c-.26,0-.49-.04-.71-.13s-.4-.21-.56-.38c-.16-.17-.28-.37-.37-.62-.09-.25-.13-.53-.13-.85,0-.26.04-.5.12-.73.08-.22.19-.42.34-.58.15-.16.33-.29.55-.39s.46-.14.73-.14c.22,0,.43.04.62.11s.35.18.49.32c.14.14.25.31.32.52.08.21.12.44.12.71,0,.1-.01.17-.03.21s-.06.05-.12.05h-2.48c0,.23.04.44.1.61s.14.32.24.43.22.2.37.26c.14.06.3.09.48.09.16,0,.31-.02.42-.06s.22-.08.31-.12c.09-.04.16-.09.21-.12.06-.04.11-.06.15-.06.05,0,.09.02.12.06l.18.24Zm-.53-1.74c0-.15-.02-.29-.06-.42-.04-.13-.11-.23-.19-.33-.08-.09-.18-.16-.3-.21-.12-.05-.25-.07-.4-.07-.31,0-.56.09-.74.27-.18.18-.3.43-.34.76h2.03Z"/><path class="cls-4" d="m185.09,62.44c.27,0,.52.05.73.14.22.09.4.22.56.38.15.17.27.37.35.6.08.24.12.5.12.79s-.04.56-.12.79-.2.43-.35.6c-.15.17-.34.29-.56.38-.22.09-.46.13-.73.13s-.52-.05-.74-.13c-.22-.09-.41-.22-.56-.38-.15-.17-.27-.37-.35-.6s-.12-.5-.12-.79.04-.55.12-.79c.08-.24.2-.44.35-.6.15-.17.34-.29.56-.38.22-.09.46-.14.74-.14Zm0,3.31c.37,0,.64-.12.82-.37.18-.25.27-.59.27-1.03s-.09-.79-.27-1.03c-.18-.25-.45-.37-.82-.37-.19,0-.35.03-.49.1-.14.06-.25.16-.35.28-.09.12-.16.27-.21.44-.05.17-.07.37-.07.59,0,.44.09.78.27,1.03s.46.37.83.37Z"/><path class="cls-4" d="m187.78,66.21v-3.15l-.41-.05c-.05-.01-.09-.03-.13-.06-.03-.03-.05-.06-.05-.11v-.27h.59v-.36c0-.21.03-.4.09-.57.06-.17.14-.3.26-.42.11-.11.24-.2.4-.26.16-.06.33-.09.53-.09.17,0,.32.02.46.07v.33c-.02.06-.05.09-.11.1-.06,0-.14,0-.24,0-.11,0-.21.02-.31.04-.09.03-.17.08-.24.14s-.12.15-.15.26c-.04.11-.05.24-.05.4v.34h1.07v.47h-1.05v3.17h-.66Z"/><path class="cls-4" d="m158.71,73.13s.08-.05.12-.05c.04,0,.07.02.1.05l.28.3c-.21.25-.48.44-.78.58-.31.14-.68.21-1.11.21-.38,0-.72-.07-1.03-.2-.31-.13-.57-.31-.79-.55-.22-.24-.39-.52-.51-.85-.12-.33-.18-.69-.18-1.09s.06-.76.19-1.09.3-.61.53-.85c.23-.24.5-.42.81-.55.32-.13.66-.2,1.04-.2s.7.06.99.18c.29.12.54.28.75.49l-.23.33s-.03.04-.06.06c-.02.02-.05.02-.09.02-.04,0-.1-.02-.16-.07-.06-.05-.15-.1-.25-.16-.1-.06-.23-.11-.38-.16-.15-.05-.34-.07-.57-.07-.27,0-.52.05-.74.14-.22.09-.42.23-.58.41-.16.18-.29.4-.38.65-.09.26-.14.55-.14.87s.05.62.14.88c.09.26.22.47.38.65.16.18.35.31.58.4.22.09.46.14.72.14.16,0,.3,0,.42-.03.13-.02.24-.05.35-.09.11-.04.21-.09.3-.15.09-.06.18-.13.27-.21h0Zm2.6-2.74c.27,0,.52.05.73.14.22.09.4.22.56.38.15.17.27.37.35.6.08.24.12.5.12.79s-.04.56-.12.79c-.08.23-.2.43-.35.6-.15.17-.34.29-.56.38-.22.09-.46.13-.73.13s-.52-.04-.74-.13c-.22-.09-.4-.22-.56-.38-.15-.17-.27-.37-.35-.6-.08-.23-.12-.5-.12-.79s.04-.55.12-.79c.08-.24.2-.44.35-.6.15-.17.34-.29.56-.38.22-.09.46-.14.74-.14Zm0,3.31c.37,0,.64-.12.82-.37.18-.25.27-.59.27-1.03s-.09-.79-.27-1.03c-.18-.25-.45-.37-.82-.37-.19,0-.35.03-.49.1-.14.06-.25.16-.34.27-.09.12-.16.27-.21.44-.05.17-.07.37-.07.59,0,.44.09.78.27,1.03.18.25.46.37.83.37Zm3.14-2.51c.12-.25.26-.45.43-.6.17-.14.38-.21.63-.21.08,0,.15,0,.23.03.07.02.14.04.19.08l-.05.49c-.01.06-.05.09-.11.09-.03,0-.08,0-.15-.02-.07-.01-.14-.02-.22-.02-.12,0-.22.02-.31.05-.09.03-.17.08-.25.15-.07.07-.14.15-.19.25-.06.1-.11.21-.16.34v2.35h-.66v-3.71h.37c.07,0,.12.01.15.04.03.03.05.07.05.14l.04.56Zm2.59,0c.12-.25.26-.45.43-.6.17-.14.38-.21.63-.21.08,0,.15,0,.23.03.07.02.14.04.19.08l-.05.49c-.01.06-.05.09-.11.09-.03,0-.08,0-.15-.02-.07-.01-.14-.02-.22-.02-.12,0-.22.02-.31.05-.09.03-.17.08-.25.15-.07.07-.14.15-.19.25-.06.1-.11.21-.16.34v2.35h-.66v-3.71h.37c.07,0,.12.01.15.04.03.03.05.07.05.14l.04.56Zm5.03-.74v3.71h-.39c-.09,0-.15-.05-.18-.14l-.05-.4c-.16.18-.34.32-.54.43-.2.11-.43.16-.69.16-.2,0-.38-.03-.54-.1-.16-.07-.29-.16-.39-.28-.11-.12-.18-.27-.24-.44-.05-.17-.08-.37-.08-.58v-2.37h.65v2.37c0,.28.06.5.19.65.13.15.32.23.59.23.19,0,.37-.05.54-.14.17-.09.32-.22.46-.38v-2.73h.65Zm1.58.58c.16-.19.34-.35.54-.47.21-.12.44-.18.7-.18.21,0,.41.04.58.12.17.08.32.2.44.36.12.16.22.36.28.6.07.24.1.51.1.82,0,.27-.04.53-.11.76-.07.24-.18.44-.32.61-.14.17-.31.31-.51.41-.2.1-.42.15-.67.15-.23,0-.42-.04-.58-.12-.16-.08-.31-.18-.43-.32v1.64h-.66v-4.97h.39c.09,0,.15.05.17.14l.06.44Zm.03,2.24c.12.16.25.27.39.34.14.07.3.1.48.1.35,0,.61-.12.8-.37.19-.25.28-.6.28-1.06,0-.24-.02-.45-.06-.62-.04-.17-.1-.32-.19-.43-.08-.11-.18-.19-.3-.24s-.25-.08-.4-.08c-.21,0-.4.05-.56.15-.16.1-.31.24-.44.41v1.8Zm6.78.89h-.65v-3.17h-1.91v2.23c0,.16.04.27.11.35.08.08.17.11.29.11.07,0,.13,0,.18-.03.05-.02.09-.04.13-.06.04-.02.07-.04.09-.06.03-.02.05-.03.07-.03.03,0,.06.02.09.06l.19.31c-.11.11-.25.19-.41.25-.16.06-.32.09-.49.09-.29,0-.52-.08-.68-.25-.16-.16-.24-.4-.24-.71v-2.27h-.45s-.07-.01-.1-.03c-.03-.02-.04-.06-.04-.11v-.26l.61-.08.15-1.14s.02-.07.05-.09c.03-.02.06-.03.1-.03h.33v1.28h2.56v3.64Zm.16-4.9c0,.06-.01.12-.04.18-.03.05-.06.1-.1.14-.04.04-.09.07-.15.1-.06.02-.12.04-.18.04s-.12-.01-.18-.04c-.05-.02-.1-.06-.14-.1-.04-.04-.07-.09-.1-.14-.02-.05-.04-.11-.04-.18s.01-.12.04-.18c.02-.06.06-.11.1-.15.04-.04.09-.08.14-.1.05-.02.11-.04.18-.04s.12.01.18.04c.06.02.11.06.15.1.04.04.08.09.1.15.03.06.04.12.04.18Zm2.4,1.13c.27,0,.52.05.73.14.22.09.4.22.56.38.15.17.27.37.35.6.08.24.12.5.12.79s-.04.56-.12.79c-.08.23-.2.43-.35.6-.15.17-.34.29-.56.38-.22.09-.46.13-.73.13s-.52-.04-.74-.13c-.22-.09-.4-.22-.56-.38-.15-.17-.27-.37-.35-.6-.08-.23-.12-.5-.12-.79s.04-.55.12-.79c.08-.24.2-.44.35-.6.15-.17.34-.29.56-.38.22-.09.46-.14.74-.14Zm0,3.31c.37,0,.64-.12.82-.37.18-.25.27-.59.27-1.03s-.09-.79-.27-1.03c-.18-.25-.45-.37-.82-.37-.19,0-.35.03-.49.1-.14.06-.25.16-.34.27-.09.12-.16.27-.21.44-.05.17-.07.37-.07.59,0,.44.09.78.27,1.03.18.25.46.37.83.37Zm3.13-2.72c.08-.09.17-.17.26-.25.09-.07.19-.14.29-.19.1-.05.21-.09.32-.12.11-.03.24-.04.37-.04.2,0,.38.03.54.1.16.07.28.16.39.29.1.12.18.27.24.45.05.17.08.37.08.58v2.36h-.66v-2.36c0-.28-.06-.5-.19-.65-.13-.16-.32-.23-.58-.23-.19,0-.37.05-.54.14-.17.09-.32.22-.46.38v2.73h-.66v-3.71h.39c.09,0,.15.05.17.14l.05.4Z"/><path class="cls-5" d="m168.12,54.97c0,.51-.05.96-.16,1.34s-.26.69-.46.94c-.19.25-.42.43-.69.55-.26.12-.55.18-.86.18s-.59-.06-.85-.18-.49-.3-.68-.55c-.19-.25-.34-.56-.45-.94s-.16-.82-.16-1.34.05-.96.16-1.34c.11-.38.26-.69.45-.94.19-.25.42-.43.68-.55.26-.12.55-.18.85-.18s.59.06.86.18c.26.12.49.31.69.55.19.25.35.56.46.94.11.38.16.82.16,1.34Zm-1.04,0c0-.43-.03-.78-.09-1.06-.06-.28-.15-.5-.25-.67-.1-.17-.22-.28-.36-.35-.14-.07-.28-.1-.42-.1s-.28.03-.42.1c-.13.07-.25.18-.36.35-.1.17-.19.39-.25.67-.06.28-.09.63-.09,1.06s.03.78.09,1.06c.06.28.14.5.25.67.1.17.22.28.36.35s.27.1.42.1.29-.03.42-.1.26-.18.36-.35c.1-.17.19-.39.25-.67.06-.28.09-.63.09-1.06Z"/><path class="cls-5" d="m168.6,57.36c0-.08.02-.16.05-.24.03-.08.07-.14.13-.2.05-.05.12-.1.19-.13.08-.03.16-.05.24-.05s.17.02.24.05.14.08.2.13.1.12.13.2c.03.08.05.16.05.24s-.02.17-.05.24c-.03.07-.08.14-.13.19-.06.05-.12.1-.2.13s-.16.05-.24.05-.17-.02-.24-.05c-.08-.03-.14-.07-.19-.13s-.1-.12-.13-.19c-.03-.07-.05-.16-.05-.24Z"/><path class="cls-5" d="m174.62,55.7v.58c0,.05-.02.1-.05.14-.03.04-.09.06-.15.06h-.54v1.44h-.88v-1.44h-2.48c-.07,0-.13-.02-.18-.06s-.08-.09-.1-.16l-.11-.51,2.79-3.73h.95v3.67h.74Zm-1.62,0v-1.93c0-.18.01-.38.04-.6l-1.83,2.53h1.79Z"/><path class="cls-5" d="m176.4,54.17c.13-.03.26-.05.38-.06.12-.01.23-.02.35-.02.31,0,.58.05.82.14s.43.22.59.38c.16.16.28.35.36.57s.12.45.12.71c0,.31-.05.6-.17.85-.11.26-.26.48-.46.66-.19.18-.43.33-.69.43-.27.1-.56.15-.87.15-.18,0-.36-.02-.52-.06-.17-.04-.32-.09-.47-.15-.14-.06-.28-.14-.4-.22-.12-.08-.23-.17-.33-.26l.31-.43c.07-.09.15-.14.26-.14.07,0,.14.02.21.07.07.04.15.09.24.14.09.05.2.1.32.14.12.04.27.07.45.07.18,0,.35-.03.49-.09.14-.06.26-.14.35-.25.09-.11.16-.24.21-.38.05-.15.07-.31.07-.48,0-.32-.09-.57-.28-.75s-.46-.27-.82-.27c-.28,0-.57.05-.86.16l-.63-.18.49-2.86h2.91v.43c0,.14-.05.26-.13.35s-.24.13-.46.13h-1.62l-.21,1.23Z"/><path class="cls-4" d="m164.32,119.3c0,.39-.06.75-.19,1.08-.12.33-.3.61-.53.85-.23.24-.5.42-.82.55-.32.13-.67.2-1.06.2s-.74-.07-1.06-.2c-.32-.13-.59-.31-.82-.55-.23-.24-.4-.52-.53-.85-.12-.33-.19-.69-.19-1.08s.06-.75.19-1.08.3-.61.53-.85c.23-.24.5-.42.82-.56s.67-.2,1.06-.2.74.07,1.06.2c.32.13.59.32.82.56.23.24.4.52.53.85s.19.69.19,1.08Zm-.73,0c0-.32-.04-.61-.13-.87-.09-.26-.21-.47-.37-.65-.16-.18-.36-.31-.59-.41s-.49-.14-.77-.14-.54.05-.77.14-.43.23-.59.41c-.16.18-.29.39-.38.65-.09.26-.13.55-.13.87s.04.61.13.87c.09.26.21.47.38.65.16.18.36.31.59.41.23.09.49.14.77.14s.54-.05.77-.14c.23-.09.42-.23.59-.41s.29-.39.37-.65c.09-.26.13-.54.13-.87Z"/><path class="cls-4" d="m165.66,118.79c.16-.19.34-.35.54-.47.21-.12.44-.18.7-.18.21,0,.41.04.58.12.17.08.32.2.44.36.12.16.22.36.28.6s.1.51.1.82c0,.27-.04.53-.11.76-.07.24-.18.44-.32.61-.14.17-.31.31-.51.41-.2.1-.42.15-.67.15-.23,0-.42-.04-.58-.12-.16-.08-.31-.18-.43-.32v1.64h-.66v-4.97h.39c.09,0,.15.05.17.14l.06.44Zm.03,2.24c.12.16.25.27.39.34s.3.1.48.1c.35,0,.61-.12.8-.37.19-.25.28-.6.28-1.06,0-.24-.02-.45-.06-.62-.04-.17-.1-.32-.19-.43-.08-.11-.18-.19-.3-.24-.12-.05-.25-.08-.4-.08-.21,0-.4.05-.56.15-.16.1-.31.24-.44.41v1.8Z"/><path class="cls-4" d="m172.09,121.41c-.08.1-.18.18-.29.25-.11.07-.23.13-.36.18-.13.05-.26.08-.4.1s-.27.03-.41.03c-.26,0-.49-.04-.71-.13s-.4-.21-.56-.38c-.16-.17-.28-.37-.37-.62-.09-.25-.13-.53-.13-.85,0-.26.04-.5.12-.73.08-.22.19-.42.34-.58.15-.16.33-.29.55-.39s.46-.14.73-.14c.22,0,.43.04.62.11s.35.18.49.32c.14.14.25.31.32.52.08.21.12.44.12.71,0,.1-.01.17-.03.21s-.06.05-.12.05h-2.48c0,.23.04.44.1.61s.14.32.24.43.22.2.37.26c.14.06.3.09.48.09.16,0,.31-.02.42-.06s.22-.08.31-.12c.09-.04.16-.09.21-.12.06-.04.11-.06.15-.06.05,0,.09.02.12.06l.18.24Zm-.53-1.74c0-.15-.02-.29-.06-.42-.04-.13-.11-.23-.19-.33-.08-.09-.18-.16-.3-.21-.12-.05-.25-.07-.4-.07-.31,0-.56.09-.74.27-.18.18-.3.43-.34.76h2.03Z"/><path class="cls-4" d="m173.49,118.75c.08-.09.17-.17.26-.24.09-.07.19-.14.29-.19.1-.05.21-.09.32-.12.11-.03.24-.04.37-.04.2,0,.38.03.54.1.16.07.28.16.39.29.1.12.18.27.24.44.05.17.08.37.08.58v2.36h-.66v-2.36c0-.28-.06-.5-.19-.65-.13-.16-.32-.23-.58-.23-.19,0-.37.05-.54.14-.17.09-.32.22-.46.38v2.73h-.66v-3.71h.39c.09,0,.15.05.17.14l.05.4Z"/><path class="cls-4" d="m152.77,127.43v2.01c-.26.19-.55.33-.84.43-.3.09-.63.14-.98.14-.42,0-.8-.07-1.14-.2-.34-.13-.63-.31-.87-.55-.24-.24-.43-.52-.56-.85-.13-.33-.19-.69-.19-1.09s.06-.77.19-1.1.3-.61.54-.85c.23-.24.51-.42.85-.55.33-.13.7-.19,1.11-.19.21,0,.4.02.58.05.18.03.34.07.49.13.15.06.29.13.42.21.13.08.25.17.36.28l-.2.32s-.07.08-.12.09-.11,0-.17-.03c-.06-.03-.13-.08-.2-.12-.08-.05-.17-.1-.28-.14s-.24-.08-.38-.12-.32-.05-.53-.05c-.3,0-.56.05-.8.14-.24.1-.44.23-.61.41s-.3.4-.39.65c-.09.26-.14.54-.14.86s.05.62.14.89c.09.26.23.48.4.66.17.18.39.32.64.42.25.09.53.14.84.14.24,0,.46-.03.65-.08.19-.06.37-.13.56-.23v-1.15h-.82s-.08-.01-.11-.04c-.03-.03-.04-.06-.04-.1v-.4h1.61Z"/><path class="cls-4" d="m155.15,126.18c.27,0,.52.05.73.14.22.09.4.22.56.38.15.17.27.37.35.6.08.24.12.5.12.79s-.04.56-.12.79-.2.43-.35.6c-.15.17-.34.29-.56.38-.22.09-.46.13-.73.13s-.52-.05-.74-.13c-.22-.09-.41-.22-.56-.38-.15-.17-.27-.37-.35-.6s-.12-.5-.12-.79.04-.55.12-.79c.08-.24.2-.44.35-.6.15-.17.34-.29.56-.38.22-.09.46-.14.74-.14Zm0,3.31c.37,0,.64-.12.82-.37.18-.25.27-.59.27-1.03s-.09-.79-.27-1.03c-.18-.25-.45-.37-.82-.37-.19,0-.35.03-.49.1-.14.06-.25.16-.35.28-.09.12-.16.27-.21.44-.05.17-.07.37-.07.59,0,.44.09.78.27,1.03s.46.37.83.37Z"/><path class="cls-4" d="m160.75,126.24l-1.51,3.71h-.59l-1.51-3.71h.53c.05,0,.1.01.13.04s.06.06.07.1l.94,2.39c.03.09.05.18.08.26.02.09.04.17.06.26.02-.09.04-.17.06-.26.02-.09.05-.17.08-.26l.95-2.39s.04-.07.07-.1c.03-.03.07-.04.12-.04h.51Z"/><path class="cls-4" d="m164.2,129.43c-.08.1-.18.18-.29.25-.11.07-.23.13-.36.18-.13.05-.26.08-.4.1s-.27.03-.41.03c-.26,0-.49-.04-.71-.13s-.4-.21-.56-.38c-.16-.17-.28-.37-.37-.62-.09-.25-.13-.53-.13-.85,0-.26.04-.5.12-.73.08-.22.19-.42.34-.58.15-.16.33-.29.55-.39s.46-.14.73-.14c.22,0,.43.04.62.11s.35.18.49.32c.14.14.25.31.32.52.08.21.12.44.12.71,0,.1-.01.17-.03.21s-.06.05-.12.05h-2.48c0,.23.04.44.1.61s.14.32.24.43.22.2.37.26c.14.06.3.09.48.09.16,0,.31-.02.42-.06s.22-.08.31-.12c.09-.04.16-.09.21-.12.06-.04.11-.06.15-.06.05,0,.09.02.12.06l.18.24Zm-.53-1.74c0-.15-.02-.29-.06-.42-.04-.13-.11-.23-.19-.33-.08-.09-.18-.16-.3-.21-.12-.05-.25-.07-.4-.07-.31,0-.56.09-.74.27-.18.18-.3.43-.34.76h2.03Z"/><path class="cls-4" d="m165.61,126.98c.12-.25.26-.45.43-.6.17-.14.38-.21.63-.21.08,0,.15,0,.23.03.07.02.14.04.19.08l-.05.49c-.02.06-.05.09-.11.09-.03,0-.08,0-.15-.02-.07-.01-.14-.02-.22-.02-.12,0-.22.02-.31.05-.09.03-.17.09-.25.15-.07.07-.14.15-.19.25-.06.1-.11.21-.16.34v2.34h-.66v-3.71h.37c.07,0,.12.01.15.04s.05.07.05.14l.04.56Z"/><path class="cls-4" d="m168.21,126.78c.08-.09.17-.17.26-.24.09-.07.19-.14.29-.19.1-.05.21-.09.32-.12.11-.03.24-.04.37-.04.2,0,.38.03.54.1.16.07.28.16.39.29.1.12.18.27.24.44.05.17.08.37.08.58v2.36h-.66v-2.36c0-.28-.06-.5-.19-.65-.13-.16-.32-.23-.58-.23-.19,0-.37.05-.54.14-.17.09-.32.22-.46.38v2.73h-.66v-3.71h.39c.09,0,.15.05.17.14l.05.4Z"/><path class="cls-4" d="m171.61,129.95v-3.71h.39c.09,0,.15.05.17.14l.05.38c.14-.17.29-.31.46-.41s.37-.16.59-.16c.25,0,.45.07.61.21s.27.33.33.56c.05-.13.12-.25.21-.35s.18-.18.28-.24.22-.11.33-.14.24-.04.36-.04c.2,0,.37.03.52.09s.28.15.39.27c.11.12.19.27.24.44.06.17.08.37.08.6v2.36h-.66v-2.36c0-.29-.06-.51-.19-.66-.13-.15-.31-.23-.55-.23-.11,0-.21.02-.31.06-.1.04-.18.09-.25.17s-.13.17-.17.28c-.04.11-.06.24-.06.39v2.36h-.66v-2.36c0-.3-.06-.52-.18-.67-.12-.15-.29-.22-.52-.22-.16,0-.31.04-.45.13s-.26.21-.38.35v2.77h-.66Z"/><path class="cls-4" d="m180.58,129.43c-.08.1-.18.18-.29.25s-.23.13-.36.18c-.13.05-.26.08-.4.1s-.27.03-.41.03c-.26,0-.49-.04-.71-.13s-.4-.21-.56-.38c-.16-.17-.28-.37-.37-.62-.09-.25-.13-.53-.13-.85,0-.26.04-.5.12-.73.08-.22.19-.42.34-.58.15-.16.33-.29.55-.39.22-.09.46-.14.73-.14.22,0,.43.04.62.11s.35.18.49.32c.14.14.25.31.32.52.08.21.12.44.12.71,0,.1-.01.17-.03.21-.02.03-.06.05-.12.05h-2.48c0,.23.04.44.1.61s.14.32.24.43.23.2.37.26.3.09.48.09c.16,0,.3-.02.42-.06s.22-.08.31-.12c.09-.04.16-.09.21-.12.06-.04.11-.06.15-.06.05,0,.1.02.12.06l.18.24Zm-.53-1.74c0-.15-.02-.29-.06-.42s-.1-.23-.19-.33-.18-.16-.3-.21c-.12-.05-.25-.07-.4-.07-.31,0-.56.09-.74.27s-.3.43-.34.76h2.03Z"/><path class="cls-4" d="m181.99,126.78c.08-.09.17-.17.26-.24s.19-.14.29-.19c.1-.05.21-.09.32-.12.11-.03.24-.04.37-.04.2,0,.38.03.54.1.16.07.28.16.39.29.1.12.18.27.24.44.05.17.08.37.08.58v2.36h-.66v-2.36c0-.28-.06-.5-.19-.65s-.32-.23-.58-.23c-.19,0-.37.05-.54.14-.17.09-.32.22-.46.38v2.73h-.66v-3.71h.39c.09,0,.15.05.17.14l.05.4Z"/><path class="cls-4" d="m186.48,130.01c-.29,0-.52-.08-.68-.25-.16-.16-.24-.4-.24-.71v-2.27h-.45s-.07-.01-.1-.03c-.03-.02-.04-.06-.04-.11v-.26l.61-.08.15-1.15s.02-.07.05-.09.06-.03.1-.03h.33v1.28h1.07v.47h-1.07v2.23c0,.16.04.27.11.35s.17.11.29.11c.07,0,.13,0,.18-.03s.09-.04.13-.06c.04-.02.07-.04.09-.06.03-.02.05-.03.07-.03.03,0,.06.02.09.06l.19.31c-.11.1-.25.19-.41.25s-.32.09-.49.09Z"/><path class="cls-5" d="m164.21,110.15c0,.51-.05.96-.16,1.34s-.26.69-.46.94c-.19.25-.42.43-.69.55-.26.12-.55.18-.86.18s-.59-.06-.85-.18-.49-.3-.68-.55c-.19-.25-.34-.56-.45-.94s-.16-.82-.16-1.34.05-.96.16-1.34c.11-.38.26-.69.45-.94.19-.25.42-.43.68-.55.26-.12.55-.18.85-.18s.59.06.86.18c.26.12.49.31.69.55.19.25.35.56.46.94.11.38.16.82.16,1.34Zm-1.04,0c0-.43-.03-.78-.09-1.06-.06-.28-.15-.5-.25-.67-.1-.17-.22-.28-.36-.35-.14-.07-.28-.1-.42-.1s-.28.03-.42.1c-.13.07-.25.18-.36.35-.1.17-.19.39-.25.67-.06.28-.09.63-.09,1.06s.03.78.09,1.06c.06.28.14.5.25.67.1.17.22.28.36.35s.27.1.42.1.29-.03.42-.1.26-.18.36-.35c.1-.17.19-.39.25-.67.06-.28.09-.63.09-1.06Z"/><path class="cls-5" d="m164.69,112.54c0-.08.02-.16.05-.24.03-.08.07-.14.13-.2.05-.05.12-.1.19-.13.08-.03.16-.05.24-.05s.17.02.24.05.14.08.2.13.1.12.13.2c.03.08.05.16.05.24s-.02.17-.05.24c-.03.07-.08.14-.13.19-.06.05-.12.1-.2.13s-.16.05-.24.05-.17-.02-.24-.05c-.08-.03-.14-.07-.19-.13s-.1-.12-.13-.19c-.03-.07-.05-.16-.05-.24Z"/><path class="cls-5" d="m167.84,109.35c.13-.03.26-.05.38-.06.12-.01.23-.02.35-.02.31,0,.58.05.82.14s.43.22.59.38c.16.16.28.35.36.57s.12.45.12.71c0,.31-.05.6-.17.85-.11.26-.26.48-.46.66-.19.18-.43.33-.69.43-.27.1-.56.15-.87.15-.18,0-.36-.02-.52-.06-.17-.04-.32-.09-.47-.15-.14-.06-.28-.14-.4-.22-.12-.08-.23-.17-.33-.26l.31-.43c.07-.09.15-.14.26-.14.07,0,.14.02.21.07.07.04.15.09.24.14.09.05.2.1.32.14.12.04.27.07.45.07.18,0,.35-.03.49-.09.14-.06.26-.14.35-.25.09-.11.16-.24.21-.38.05-.15.07-.31.07-.48,0-.32-.09-.57-.28-.75s-.46-.27-.82-.27c-.28,0-.57.05-.86.16l-.63-.18.49-2.86h2.91v.43c0,.14-.05.26-.13.35s-.24.13-.46.13h-1.62l-.21,1.23Z"/><path class="cls-5" d="m175.36,110.15c0,.51-.05.96-.16,1.34-.11.38-.26.69-.46.94-.19.25-.42.43-.69.55s-.55.18-.86.18-.59-.06-.85-.18c-.26-.12-.49-.3-.68-.55-.19-.25-.34-.56-.45-.94-.11-.38-.16-.82-.16-1.34s.05-.96.16-1.34c.11-.38.26-.69.45-.94.19-.25.42-.43.68-.55.26-.12.55-.18.85-.18s.59.06.86.18c.26.12.49.31.69.55.19.25.35.56.46.94.11.38.16.82.16,1.34Zm-1.04,0c0-.43-.03-.78-.09-1.06-.06-.28-.15-.5-.25-.67-.1-.17-.23-.28-.36-.35-.14-.07-.28-.1-.42-.1s-.28.03-.42.1c-.13.07-.25.18-.36.35-.1.17-.19.39-.25.67-.06.28-.09.63-.09,1.06s.03.78.09,1.06c.06.28.14.5.25.67.1.17.22.28.36.35s.27.1.42.1.29-.03.42-.1c.14-.07.26-.18.36-.35.1-.17.19-.39.25-.67.06-.28.09-.63.09-1.06Z"/><path class="cls-4" d="m116.53,13.95s.07.02.1.05l.28.3c-.21.25-.47.44-.78.58-.3.14-.67.21-1.11.21-.37,0-.71-.06-1.02-.19-.31-.13-.57-.31-.78-.55-.22-.23-.38-.52-.5-.84-.12-.33-.18-.69-.18-1.08s.06-.75.19-1.08c.12-.33.3-.61.52-.85s.49-.42.81-.55.66-.19,1.04-.19.7.06.98.18c.28.12.53.28.75.48l-.23.32s-.03.04-.06.06-.05.02-.09.02c-.04,0-.1-.02-.16-.07s-.15-.1-.25-.16c-.1-.06-.23-.11-.38-.16-.15-.05-.34-.07-.56-.07-.27,0-.52.05-.74.14-.22.09-.42.23-.58.41-.16.18-.29.39-.38.65s-.14.54-.14.86.05.62.14.87.22.47.38.65c.16.18.35.31.57.4.22.09.46.14.71.14.16,0,.3,0,.42-.03s.24-.05.35-.09c.11-.04.2-.09.29-.15.09-.06.18-.13.27-.21.04-.04.08-.05.12-.05Z"/><path class="cls-4" d="m119.06,11.28c.27,0,.51.04.73.13.22.09.4.22.55.38.15.17.27.37.35.6.08.23.12.5.12.79s-.04.55-.12.79-.2.43-.35.6c-.15.16-.34.29-.55.38-.22.09-.46.13-.73.13s-.52-.04-.73-.13c-.22-.09-.4-.22-.56-.38-.15-.17-.27-.36-.35-.6s-.12-.5-.12-.79.04-.55.12-.79c.08-.23.2-.43.35-.6.15-.16.34-.29.56-.38.22-.09.46-.13.73-.13Zm0,3.29c.36,0,.64-.12.82-.37.18-.24.27-.58.27-1.02s-.09-.78-.27-1.03c-.18-.25-.45-.37-.82-.37-.18,0-.35.03-.48.09-.14.06-.25.15-.34.27-.09.12-.16.27-.2.44-.05.17-.07.37-.07.59,0,.44.09.78.27,1.02.18.24.46.37.83.37Z"/><path class="cls-4" d="m123.78,11.95c-.03.05-.07.08-.14.08-.04,0-.08-.01-.12-.04-.05-.03-.1-.06-.17-.09-.07-.03-.15-.06-.24-.09-.09-.03-.2-.04-.33-.04-.11,0-.21.01-.3.04-.09.03-.16.07-.22.12s-.11.11-.14.17c-.03.06-.05.13-.05.21,0,.09.03.17.08.24.05.06.13.12.22.16s.19.09.31.12.23.07.35.11c.12.04.24.08.35.13.11.05.22.11.31.18.09.07.16.16.22.27s.08.23.08.38c0,.17-.03.33-.09.47-.06.14-.15.27-.27.38-.12.11-.26.19-.44.25-.17.06-.37.09-.6.09-.26,0-.49-.04-.7-.13-.21-.08-.39-.19-.53-.32l.15-.25s.04-.06.07-.07.06-.03.1-.03c.04,0,.09.02.14.05.05.03.11.07.18.11.07.04.15.08.25.11s.22.05.37.05c.13,0,.24-.02.33-.05s.17-.08.24-.13.11-.12.14-.19c.03-.07.05-.15.05-.23,0-.1-.03-.19-.08-.25s-.13-.12-.22-.17-.19-.09-.31-.12c-.12-.04-.23-.07-.35-.11-.12-.04-.24-.08-.35-.13s-.22-.11-.31-.19c-.09-.08-.16-.17-.22-.28-.05-.11-.08-.24-.08-.4,0-.14.03-.28.09-.41.06-.13.14-.24.26-.34.11-.1.25-.18.41-.23.16-.06.35-.09.56-.09.24,0,.46.04.65.11.19.08.36.18.5.32l-.15.24Z"/><path class="cls-4" d="m125.92,15.09c-.29,0-.52-.08-.67-.24-.16-.16-.23-.4-.23-.7v-2.26h-.44s-.07-.01-.1-.03c-.03-.02-.04-.06-.04-.11v-.26l.6-.08.15-1.14s.02-.07.05-.09c.03-.02.06-.03.1-.03h.33v1.27h1.07v.47h-1.07v2.22c0,.16.04.27.11.35.08.08.17.11.29.11.07,0,.13,0,.18-.03s.09-.04.13-.06c.04-.02.07-.04.09-.06.03-.02.05-.03.07-.03.03,0,.06.02.09.06l.19.31c-.11.1-.25.19-.4.25-.16.06-.32.09-.49.09Z"/><path class="cls-4" d="m128.02,12.08c.12-.25.26-.45.43-.59.17-.14.38-.21.62-.21.08,0,.15,0,.22.03.07.02.14.04.19.08l-.05.48c-.01.06-.05.09-.11.09-.03,0-.08,0-.15-.02-.07-.01-.14-.02-.22-.02-.12,0-.22.02-.31.05s-.17.08-.24.15c-.07.07-.14.15-.19.25s-.11.21-.15.34v2.33h-.65v-3.69h.37c.07,0,.12.01.15.04.03.03.05.07.05.14l.04.56Z"/><path class="cls-4" d="m129.9,11.86c.2-.2.42-.34.66-.44s.5-.15.78-.15c.21,0,.39.03.55.1.16.07.29.16.4.28s.19.27.25.44c.06.17.08.36.08.57v2.36h-.29c-.06,0-.11-.01-.15-.03s-.06-.06-.08-.12l-.07-.35c-.1.09-.19.17-.28.24s-.19.13-.29.17-.21.08-.33.11c-.12.03-.24.04-.38.04s-.28-.02-.4-.06c-.13-.04-.24-.1-.33-.18-.09-.08-.17-.18-.22-.3-.05-.12-.08-.27-.08-.44,0-.15.04-.29.12-.42.08-.13.21-.25.39-.36s.41-.19.7-.26c.29-.07.64-.1,1.06-.11v-.29c0-.29-.06-.5-.19-.65-.12-.15-.31-.22-.54-.22-.16,0-.29.02-.4.06-.11.04-.2.09-.28.13-.08.05-.15.09-.2.13-.06.04-.11.06-.17.06-.04,0-.08-.01-.11-.03s-.06-.05-.08-.09l-.12-.21Zm2.1,1.51c-.3,0-.55.03-.76.07-.21.04-.38.09-.51.15-.13.06-.23.13-.29.22-.06.08-.09.18-.09.28s.02.18.05.25c.03.07.07.13.13.17.05.05.12.08.19.1.07.02.15.03.24.03.11,0,.22-.01.31-.03.09-.02.18-.06.27-.1.08-.04.16-.1.24-.16.08-.06.15-.13.22-.21v-.76Z"/><path class="cls-4" d="m134.44,10.18c0,.06-.01.12-.04.18-.03.05-.06.1-.1.15-.04.04-.09.08-.15.1-.06.02-.12.04-.18.04s-.12-.01-.18-.04c-.05-.02-.1-.06-.14-.1-.04-.04-.07-.09-.1-.15-.02-.05-.04-.11-.04-.18s.01-.12.04-.18c.02-.06.06-.11.1-.15.04-.04.09-.08.14-.1.05-.02.11-.04.18-.04s.12.01.18.04c.06.02.11.06.15.1.04.04.08.09.1.15.03.06.04.12.04.18Zm-.14,1.16v3.69h-.65v-3.69h.65Z"/><path class="cls-4" d="m135.98,11.88c.08-.09.16-.17.25-.24.09-.07.19-.14.29-.19.1-.05.21-.09.32-.12.11-.03.24-.04.37-.04.2,0,.38.03.53.1.15.07.28.16.39.28s.18.27.23.44c.05.17.08.36.08.57v2.35h-.65v-2.35c0-.28-.06-.5-.19-.65s-.32-.23-.58-.23c-.19,0-.37.05-.54.14-.17.09-.32.22-.46.38v2.72h-.65v-3.69h.39c.09,0,.15.05.17.13l.05.4Z"/><path class="cls-4" d="m140.51,15.09c-.29,0-.52-.08-.67-.24s-.23-.4-.23-.7v-2.26h-.45s-.07-.01-.1-.03-.04-.06-.04-.11v-.26l.6-.08.15-1.14s.02-.07.05-.09c.03-.02.06-.03.1-.03h.33v1.27h1.07v.47h-1.07v2.22c0,.16.04.27.11.35.08.08.17.11.29.11.07,0,.13,0,.18-.03s.09-.04.13-.06c.04-.02.07-.04.09-.06s.05-.03.07-.03c.03,0,.06.02.09.06l.19.31c-.11.1-.25.19-.4.25-.16.06-.32.09-.49.09Z"/><path class="cls-4" d="m144.14,11.95c-.03.05-.07.08-.14.08-.04,0-.08-.01-.12-.04-.05-.03-.1-.06-.17-.09-.07-.03-.15-.06-.24-.09-.09-.03-.2-.04-.33-.04-.11,0-.21.01-.3.04-.09.03-.16.07-.22.12s-.11.11-.14.17c-.03.06-.05.13-.05.21,0,.09.03.17.08.24.05.06.13.12.22.16s.19.09.31.12.23.07.35.11c.12.04.24.08.35.13.11.05.22.11.31.18.09.07.16.16.22.27s.08.23.08.38c0,.17-.03.33-.09.47-.06.14-.15.27-.27.38-.12.11-.26.19-.44.25-.17.06-.37.09-.6.09-.26,0-.49-.04-.7-.13-.21-.08-.39-.19-.53-.32l.15-.25s.04-.06.07-.07.06-.03.1-.03c.04,0,.09.02.14.05.05.03.11.07.18.11.07.04.15.08.25.11s.22.05.37.05c.13,0,.24-.02.33-.05s.17-.08.24-.13.11-.12.14-.19c.03-.07.05-.15.05-.23,0-.1-.03-.19-.08-.25s-.13-.12-.22-.17-.19-.09-.31-.12c-.12-.04-.23-.07-.35-.11-.12-.04-.24-.08-.35-.13s-.22-.11-.31-.19c-.09-.08-.16-.17-.22-.28-.05-.11-.08-.24-.08-.4,0-.14.03-.28.09-.41.06-.13.14-.24.26-.34.11-.1.25-.18.41-.23.16-.06.35-.09.56-.09.24,0,.46.04.65.11.19.08.36.18.5.32l-.15.24Z"/><path class="cls-4" d="m105.91,17.28c0,.06-.01.12-.04.18-.03.05-.06.1-.1.15-.04.04-.09.08-.15.1-.06.02-.12.04-.18.04s-.12-.01-.18-.04c-.05-.02-.1-.06-.14-.1-.04-.04-.07-.09-.1-.15-.02-.05-.04-.11-.04-.18s.01-.12.04-.18c.02-.06.06-.11.1-.15.04-.04.09-.08.14-.1.05-.02.11-.04.18-.04s.12.01.18.04c.06.02.11.06.15.1s.08.09.1.15c.03.06.04.12.04.18Zm-.14,1.16v3.69h-.65v-3.69h.65Z"/><path class="cls-4" d="m107.45,18.97c.08-.09.16-.17.25-.24.09-.07.19-.14.29-.19.1-.05.21-.09.32-.12.11-.03.24-.04.37-.04.2,0,.38.03.53.1.15.07.28.16.39.28s.18.27.23.44c.05.17.08.36.08.57v2.35h-.65v-2.35c0-.28-.06-.5-.19-.65s-.32-.23-.58-.23c-.19,0-.37.05-.54.14-.17.09-.32.22-.46.38v2.72h-.65v-3.69h.39c.09,0,.15.05.17.13l.05.4Z"/><path class="cls-4" d="m117.16,19.62v2c-.26.19-.54.33-.84.42-.3.09-.62.14-.98.14-.42,0-.8-.06-1.14-.19-.34-.13-.63-.31-.87-.55-.24-.23-.42-.52-.55-.84-.13-.33-.19-.69-.19-1.08s.06-.76.19-1.09c.12-.33.3-.61.53-.84s.51-.42.84-.54c.33-.13.7-.19,1.11-.19.21,0,.4.02.58.05.18.03.34.07.49.13.15.06.29.13.42.21.13.08.25.17.36.28l-.2.32s-.07.08-.12.09-.11,0-.17-.03c-.06-.03-.12-.08-.2-.12s-.17-.1-.28-.14c-.11-.04-.24-.08-.38-.11s-.32-.05-.52-.05c-.29,0-.56.05-.8.14-.24.1-.44.23-.61.41-.17.18-.3.39-.39.65-.09.25-.14.54-.14.85s.05.62.14.88c.09.26.23.48.4.66.17.18.38.32.63.41.25.09.53.14.83.14.24,0,.46-.03.65-.08s.37-.13.55-.23v-1.15h-.81s-.08-.01-.11-.04c-.03-.03-.04-.06-.04-.1v-.4h1.6Z"/><path class="cls-4" d="m119.6,18.38c.27,0,.51.04.73.13.22.09.4.22.55.38.15.17.27.37.35.6.08.23.12.5.12.79s-.04.55-.12.79-.2.43-.35.6c-.15.16-.34.29-.55.38-.22.09-.46.13-.73.13s-.52-.04-.73-.13c-.22-.09-.4-.22-.56-.38-.15-.17-.27-.36-.35-.6s-.12-.5-.12-.79.04-.55.12-.79c.08-.23.2-.43.35-.6.15-.16.34-.29.56-.38.22-.09.46-.13.73-.13Zm0,3.29c.36,0,.64-.12.82-.37.18-.24.27-.58.27-1.02s-.09-.78-.27-1.03c-.18-.25-.45-.37-.82-.37-.18,0-.35.03-.48.09-.14.06-.25.15-.34.27-.09.12-.16.27-.2.44-.05.17-.07.37-.07.59,0,.44.09.78.27,1.02.18.24.46.37.83.37Z"/><path class="cls-4" d="m125.24,18.44l-1.5,3.69h-.58l-1.5-3.69h.53c.05,0,.1.01.13.04.03.03.06.06.07.09l.94,2.38c.03.09.05.18.08.26.02.08.04.17.06.25.02-.08.04-.17.06-.25s.05-.17.08-.26l.95-2.38s.04-.07.07-.1c.03-.03.07-.04.12-.04h.51Z"/><path class="cls-4" d="m128.73,21.61c-.08.1-.18.18-.29.25-.11.07-.23.13-.36.18s-.26.08-.4.1c-.14.02-.27.03-.4.03-.25,0-.49-.04-.7-.13s-.4-.21-.56-.38c-.16-.17-.28-.37-.37-.62-.09-.25-.13-.53-.13-.85,0-.26.04-.5.12-.72.08-.22.19-.42.34-.58.15-.16.33-.29.54-.39.21-.09.45-.14.72-.14.22,0,.43.04.61.11.19.07.35.18.49.32.14.14.25.31.32.52.08.21.12.44.12.7,0,.1-.01.17-.03.2s-.06.05-.12.05h-2.47c0,.23.04.44.1.61s.14.32.24.43.22.2.36.26c.14.06.3.09.47.09.16,0,.3-.02.42-.06s.22-.08.3-.12c.09-.04.16-.08.21-.12.06-.04.11-.06.15-.06.05,0,.09.02.12.06l.18.24Zm-.52-1.73c0-.15-.02-.29-.06-.41-.04-.13-.11-.23-.19-.32-.08-.09-.18-.16-.3-.21s-.25-.07-.4-.07c-.31,0-.56.09-.74.27-.18.18-.29.43-.34.75h2.02Z"/><path class="cls-4" d="m130.2,19.18c.12-.25.26-.45.43-.59.17-.14.38-.21.62-.21.08,0,.15,0,.22.03.07.02.14.04.19.08l-.05.48c-.02.06-.05.09-.11.09-.03,0-.08,0-.15-.02-.07-.01-.14-.02-.22-.02-.12,0-.22.02-.31.05-.09.03-.17.08-.24.15-.07.07-.14.15-.19.25-.06.1-.11.21-.15.34v2.33h-.65v-3.69h.37c.07,0,.12.01.15.04.03.03.05.07.05.14l.04.56Z"/><path class="cls-4" d="m132.85,18.97c.08-.09.16-.17.25-.24.09-.07.19-.14.29-.19.1-.05.21-.09.32-.12.11-.03.24-.04.37-.04.2,0,.38.03.53.1.15.07.28.16.39.28s.18.27.23.44c.05.17.08.36.08.57v2.35h-.65v-2.35c0-.28-.06-.5-.19-.65s-.32-.23-.58-.23c-.19,0-.37.05-.54.14-.17.09-.32.22-.46.38v2.72h-.65v-3.69h.39c.09,0,.15.05.17.13l.05.4Z"/><path class="cls-4" d="m136.3,22.13v-3.69h.39c.09,0,.15.05.17.13l.05.38c.14-.17.29-.3.46-.41.17-.11.37-.16.59-.16.25,0,.45.07.6.21s.27.33.33.56c.05-.13.12-.25.21-.35s.18-.18.28-.24c.1-.06.22-.11.33-.14.12-.03.24-.04.36-.04.19,0,.37.03.52.09.15.06.28.15.39.27s.19.27.24.44c.06.17.08.37.08.6v2.35h-.65v-2.35c0-.29-.06-.51-.19-.66s-.31-.22-.55-.22c-.11,0-.21.02-.3.06-.1.04-.18.09-.25.17-.07.07-.13.16-.17.27-.04.11-.06.24-.06.38v2.35h-.65v-2.35c0-.3-.06-.52-.18-.66-.12-.15-.29-.22-.52-.22-.16,0-.31.04-.45.13s-.26.2-.37.35v2.75h-.65Z"/><path class="cls-4" d="m145.29,21.61c-.08.1-.18.18-.29.25-.11.07-.23.13-.36.18s-.26.08-.4.1c-.14.02-.27.03-.4.03-.25,0-.49-.04-.7-.13s-.4-.21-.56-.38c-.16-.17-.28-.37-.37-.62-.09-.25-.13-.53-.13-.85,0-.26.04-.5.12-.72.08-.22.19-.42.34-.58.15-.16.33-.29.54-.39.21-.09.45-.14.72-.14.22,0,.43.04.61.11.19.07.35.18.49.32.14.14.25.31.32.52.08.21.12.44.12.7,0,.1-.01.17-.03.2s-.06.05-.12.05h-2.47c0,.23.04.44.1.61s.14.32.24.43.22.2.36.26c.14.06.3.09.47.09.16,0,.3-.02.42-.06s.22-.08.3-.12c.09-.04.16-.08.21-.12.06-.04.11-.06.15-.06.05,0,.09.02.12.06l.18.24Zm-.52-1.73c0-.15-.02-.29-.06-.41-.04-.13-.11-.23-.19-.32-.08-.09-.18-.16-.3-.21s-.25-.07-.4-.07c-.31,0-.56.09-.74.27-.18.18-.29.43-.34.75h2.02Z"/><path class="cls-4" d="m146.75,18.97c.08-.09.17-.17.26-.24.09-.07.19-.14.29-.19.1-.05.21-.09.32-.12.11-.03.23-.04.37-.04.2,0,.38.03.53.1s.28.16.39.28c.1.12.18.27.23.44.05.17.08.36.08.57v2.35h-.65v-2.35c0-.28-.06-.5-.19-.65-.13-.15-.32-.23-.58-.23-.19,0-.37.05-.54.14-.17.09-.32.22-.46.38v2.72h-.65v-3.69h.39c.09,0,.15.05.17.13l.05.4Z"/><path class="cls-4" d="m151.29,22.18c-.29,0-.52-.08-.67-.24s-.23-.4-.23-.7v-2.26h-.45s-.07-.01-.1-.03-.04-.06-.04-.11v-.26l.6-.08.15-1.14s.02-.07.05-.09c.03-.02.06-.03.1-.03h.33v1.27h1.07v.47h-1.07v2.22c0,.16.04.27.11.35.08.08.17.11.29.11.07,0,.13,0,.18-.03s.09-.04.13-.06c.04-.02.07-.04.09-.06s.05-.03.07-.03c.03,0,.06.02.09.06l.19.31c-.11.1-.25.19-.4.25-.16.06-.32.09-.49.09Z"/><path class="cls-4" d="m118.84,25c.33,0,.62.04.86.12.24.08.45.19.61.33.16.14.28.31.36.51.08.2.12.42.12.67s-.04.47-.13.67c-.08.2-.21.38-.37.52-.16.15-.37.26-.61.34-.24.08-.52.12-.84.12h-.84v1.95h-.7v-5.22h1.54Zm0,2.71c.2,0,.38-.03.53-.08s.28-.13.39-.22c.11-.1.19-.21.24-.34.05-.13.08-.28.08-.44,0-.33-.1-.59-.31-.78-.21-.19-.52-.28-.93-.28h-.84v2.15h.84Z"/><path class="cls-4" d="m122.88,26.47c.27,0,.51.04.73.13.22.09.4.22.55.38.15.17.27.37.35.6.08.23.12.5.12.79s-.04.55-.12.79-.2.43-.35.6c-.15.16-.34.29-.55.38-.22.09-.46.13-.73.13s-.52-.04-.73-.13c-.22-.09-.4-.22-.56-.38-.15-.17-.27-.36-.35-.6s-.12-.5-.12-.79.04-.55.12-.79c.08-.23.2-.43.35-.6.15-.16.34-.29.56-.38.22-.09.46-.13.73-.13Zm0,3.29c.36,0,.64-.12.82-.37.18-.24.27-.58.27-1.02s-.09-.78-.27-1.03c-.18-.25-.45-.37-.82-.37-.19,0-.35.03-.48.09-.14.06-.25.15-.34.27s-.16.27-.2.44c-.05.17-.07.37-.07.59,0,.44.09.78.27,1.02.18.24.46.37.83.37Z"/><path class="cls-4" d="m130.49,26.53l-1.2,3.69h-.51c-.06,0-.11-.04-.13-.12l-.82-2.5c-.02-.06-.04-.11-.05-.17-.01-.06-.02-.11-.04-.17-.01.06-.02.11-.04.17-.01.06-.03.11-.05.17l-.83,2.5c-.02.08-.07.12-.15.12h-.49l-1.19-3.69h.51c.05,0,.09.01.13.04.03.03.06.06.07.09l.71,2.38c.04.17.07.34.1.5.02-.08.04-.16.07-.24s.05-.17.07-.25l.78-2.39s.03-.07.06-.09c.03-.02.07-.04.11-.04h.28s.09.01.12.04.05.05.07.09l.76,2.39c.03.08.05.17.07.25.02.08.04.16.06.24.01-.08.03-.16.05-.24.02-.08.04-.17.06-.25l.72-2.38s.03-.07.07-.1c.03-.03.07-.04.12-.04h.49Z"/><path class="cls-4" d="m134.07,29.7c-.08.1-.18.18-.29.25-.11.07-.23.13-.36.18s-.26.08-.4.1c-.14.02-.27.03-.4.03-.25,0-.49-.04-.7-.13s-.4-.21-.56-.38c-.16-.17-.28-.37-.37-.62-.09-.25-.13-.53-.13-.85,0-.26.04-.5.12-.72.08-.22.19-.42.34-.58.15-.16.33-.29.54-.39.21-.09.45-.14.72-.14.22,0,.43.04.61.11.19.07.35.18.49.32.14.14.25.31.32.52.08.21.12.44.12.7,0,.1-.01.17-.03.2s-.06.05-.12.05h-2.47c0,.23.04.44.1.61s.14.32.24.43.22.2.36.26c.14.06.3.09.47.09.16,0,.3-.02.42-.06s.22-.08.3-.12c.09-.04.16-.08.21-.12.06-.04.11-.06.15-.06.05,0,.09.02.12.06l.18.24Zm-.52-1.73c0-.15-.02-.29-.06-.41-.04-.13-.11-.23-.19-.32-.08-.09-.18-.16-.3-.21s-.25-.07-.4-.07c-.31,0-.56.09-.74.27-.18.18-.29.43-.34.75h2.02Z"/><path class="cls-4" d="m135.54,27.27c.12-.25.26-.45.43-.59.17-.14.38-.21.62-.21.08,0,.15,0,.22.03.07.02.14.04.19.08l-.05.48c-.02.06-.05.09-.11.09-.03,0-.08,0-.15-.02-.07-.01-.14-.02-.22-.02-.12,0-.22.02-.31.05-.09.03-.17.08-.24.15-.07.07-.14.15-.19.25-.06.1-.11.21-.15.34v2.33h-.65v-3.69h.37c.07,0,.12.01.15.04.03.03.05.07.05.14l.04.56Z"/><path class="cls-4" d="m139.7,27.14c-.03.05-.07.08-.14.08-.04,0-.08-.01-.12-.04-.05-.03-.1-.06-.17-.09-.07-.03-.15-.06-.24-.09-.09-.03-.2-.04-.33-.04-.11,0-.21.01-.3.04-.09.03-.16.07-.22.12s-.11.11-.14.17c-.03.06-.05.13-.05.21,0,.09.03.17.08.24.05.06.13.12.22.16s.19.09.31.12.23.07.35.11c.12.04.24.08.35.13.11.05.22.11.31.18.09.07.16.16.22.27s.08.23.08.38c0,.17-.03.33-.09.47-.06.14-.15.27-.27.38-.12.11-.26.19-.44.25-.17.06-.37.09-.6.09-.26,0-.49-.04-.7-.13-.21-.08-.39-.19-.53-.32l.15-.25s.04-.06.07-.07.06-.03.1-.03c.04,0,.09.02.14.05.05.03.11.07.18.11.07.04.15.08.25.11s.22.05.37.05c.13,0,.24-.02.33-.05s.17-.08.24-.13.11-.12.14-.19c.03-.07.05-.15.05-.23,0-.1-.03-.19-.08-.25s-.13-.12-.22-.17-.19-.09-.31-.12c-.12-.04-.23-.07-.35-.11-.12-.04-.24-.08-.35-.13s-.22-.11-.31-.19c-.09-.08-.16-.17-.22-.28-.05-.11-.08-.24-.08-.4,0-.14.03-.28.09-.41.06-.13.14-.24.26-.34.11-.1.25-.18.41-.23.16-.06.35-.09.56-.09.24,0,.46.04.65.11.19.08.36.18.5.32l-.15.24Z"/></svg>